<?xml version="1.0" encoding="UTF-8" standalone="no"?>
<!DOCTYPE svg PUBLIC "-//W3C//DTD SVG 20010904//EN"
              "http://www.w3.org/TR/2001/REC-SVG-20010904/DTD/svg10.dtd">

<svg xmlns="http://www.w3.org/2000/svg"
     width="17.0395in" height="8.72113in"
     viewBox="0 0 1227 628">
  <path id="North-America.Greenland"
        fill="none" stroke="black" stroke-width="1"
        d="M 397.00,23.38
           C 407.80,20.06 413.70,14.34 427.00,15.09
             427.00,15.09 443.00,16.79 443.00,16.79
             443.00,16.79 478.00,12.09 478.00,12.09
             478.00,12.09 488.00,12.74 488.00,12.74
             492.08,12.58 494.69,10.81 500.00,11.18
             515.76,12.30 518.04,15.72 523.00,16.79
             527.66,17.37 529.83,14.97 535.00,16.79
             527.45,20.21 522.76,18.86 518.09,23.06
             513.86,26.86 516.30,27.77 513.63,32.00
             507.59,41.60 501.56,43.09 491.00,44.00
             491.00,44.00 502.00,53.00 502.00,53.00
             502.00,53.00 487.00,50.00 487.00,50.00
             487.00,50.00 489.00,52.00 489.00,52.00
             489.00,52.00 489.00,53.00 489.00,53.00
             489.00,53.00 485.00,55.00 485.00,55.00
             490.62,55.92 491.89,54.00 496.00,58.00
             496.00,58.00 478.00,61.76 478.00,61.76
             473.32,62.24 471.97,60.79 468.00,61.76
             462.44,63.70 458.18,68.29 453.00,70.16
             447.52,72.14 442.45,71.43 437.00,74.53
             426.95,80.25 425.45,91.34 417.99,93.31
             413.00,94.62 400.72,89.26 401.64,79.00
             401.98,75.29 401.21,69.98 403.02,67.18
             405.79,62.90 419.10,58.13 412.44,50.41
             411.35,49.16 410.35,48.78 409.00,48.00
             408.98,45.58 409.07,44.33 408.07,42.00
             402.49,28.96 392.37,33.20 386.00,32.79
             383.40,32.62 380.50,31.72 378.00,31.00
             378.00,31.00 378.00,26.00 378.00,26.00
             382.07,25.67 393.51,24.45 397.00,23.38 Z" />
</svg>
