<?xml version="1.0" encoding="UTF-8" standalone="no"?>
<!DOCTYPE svg PUBLIC "-//W3C//DTD SVG 20010904//EN"
              "http://www.w3.org/TR/2001/REC-SVG-20010904/DTD/svg10.dtd">

<svg xmlns="http://www.w3.org/2000/svg"
     width="17.0395in" height="8.72113in"
     viewBox="0 0 1227 628">
  <path id="Asia.Siam"
        fill="none" stroke="black" stroke-width="1"
        d="M 950.79,238.13
           C 957.73,242.57 951.59,248.49 953.35,252.90
             954.22,255.06 956.68,256.60 958.22,258.37
             965.57,266.87 958.97,264.85 971.00,268.00
             971.00,268.00 971.00,262.00 971.00,262.00
             971.00,262.00 984.99,259.64 984.99,259.64
             984.99,259.64 995.00,267.00 995.00,267.00
             993.61,268.03 992.45,268.77 991.28,270.11
             984.37,278.07 995.16,283.80 999.61,289.09
             1003.00,293.12 1006.72,301.66 1006.73,307.00
             1006.74,313.92 1001.96,314.55 998.37,317.62
             994.75,320.72 996.50,320.60 991.00,324.00
             989.64,318.33 990.89,316.89 985.00,317.00
             980.50,309.91 975.39,305.90 968.00,302.00
             967.65,304.18 966.72,318.61 967.21,320.00
             971.43,331.95 976.70,331.58 982.30,339.17
             985.04,342.88 987.34,352.32 988.00,357.00
             975.64,353.95 975.09,345.91 971.52,336.00
             968.96,328.91 963.88,328.15 962.66,324.68
             962.66,324.68 963.70,310.00 963.70,310.00
             963.58,306.45 960.98,302.55 959.70,299.00
             959.70,299.00 956.70,290.24 956.70,290.24
             953.38,285.54 949.39,293.48 945.77,290.24
             945.77,290.24 941.74,279.00 941.74,279.00
             937.24,270.47 934.67,274.01 932.00,267.00
             932.00,267.00 935.23,264.59 935.23,264.59
             935.23,264.59 936.66,258.00 936.66,258.00
             936.66,258.00 940.56,245.10 940.56,245.10
             940.56,245.10 948.00,237.00 948.00,237.00
             949.08,237.39 949.69,237.42 950.79,238.13 Z" />
</svg>
