<?xml version="1.0" encoding="UTF-8" standalone="no"?>
<!DOCTYPE svg PUBLIC "-//W3C//DTD SVG 20010904//EN"
              "http://www.w3.org/TR/2001/REC-SVG-20010904/DTD/svg10.dtd">

<svg xmlns="http://www.w3.org/2000/svg"
     width="17.0395in" height="8.72113in"
     viewBox="0 0 1227 628">
  <path id="North-America.Quebec"
        fill="none" stroke="black" stroke-width="1"
        d="M 294.00,157.69
           C 287.55,160.81 273.45,158.15 268.58,153.04
             265.18,149.48 271.57,138.44 273.96,135.10
             276.42,131.67 278.83,131.17 280.92,127.90
             282.90,124.80 282.74,121.64 286.22,118.63
             289.53,115.78 294.47,115.15 298.26,109.96
             301.40,105.66 299.77,103.81 300.68,101.09
             301.11,99.82 309.94,88.20 311.21,87.45
             316.08,84.59 328.02,87.29 330.78,92.33
             332.45,95.37 329.98,99.91 333.68,102.04
             336.73,103.80 343.70,97.82 348.00,96.00
             351.40,102.65 349.74,106.23 350.31,109.42
             350.31,109.42 354.00,118.00 354.00,118.00
             354.00,118.00 350.00,120.81 350.00,120.81
             352.89,120.95 357.64,119.73 359.93,120.81
             361.14,121.08 362.16,121.86 362.59,123.13
             364.24,128.15 354.46,132.05 351.00,133.38
             336.66,138.89 334.43,135.57 327.00,136.19
             319.75,136.79 310.82,142.06 304.00,145.00
             304.00,145.00 305.00,148.00 305.00,148.00
             313.29,143.28 315.43,142.03 325.00,142.00
             325.00,142.00 319.00,151.00 319.00,151.00
             319.00,151.00 328.00,153.00 328.00,153.00
             328.00,153.00 325.00,157.00 325.00,157.00
             330.58,156.40 332.46,155.41 336.00,151.00
             336.00,151.00 338.00,151.00 338.00,151.00
             338.00,151.00 339.00,152.00 339.00,152.00
             339.00,152.00 339.00,154.00 339.00,154.00
             333.46,157.61 317.24,165.35 311.00,165.00
             311.00,165.00 321.00,158.00 321.00,158.00
             315.64,157.15 313.94,158.10 309.00,160.00
             309.00,160.00 309.00,149.00 309.00,149.00
             299.02,151.38 300.15,154.70 294.00,157.69 Z" />
</svg>
