<?xml version="1.0" encoding="UTF-8" standalone="no"?>
<!DOCTYPE svg PUBLIC "-//W3C//DTD SVG 20010904//EN"
              "http://www.w3.org/TR/2001/REC-SVG-20010904/DTD/svg10.dtd">

<svg xmlns="http://www.w3.org/2000/svg"
     width="17.0395in" height="8.72113in"
     viewBox="0 0 1227 628">
  <path id="Asia.Siberia"
        fill="none" stroke="black" stroke-width="1"
        d="M 830.00,34.22
           C 830.00,34.22 839.00,34.22 839.00,34.22
             843.26,33.30 845.45,29.06 851.00,29.16
             855.57,29.24 858.05,32.18 862.00,32.56
             867.27,33.07 873.06,29.46 884.00,36.00
             884.00,36.00 884.00,38.00 884.00,38.00
             884.00,38.00 874.00,43.93 874.00,43.93
             874.00,43.93 883.00,43.93 883.00,43.93
             883.00,43.93 895.00,50.00 895.00,50.00
             892.70,55.50 889.99,55.69 890.03,58.09
             890.06,60.03 892.92,62.65 894.14,64.17
             900.36,71.88 899.53,73.89 909.00,78.00
             907.71,84.04 909.36,82.43 910.89,87.00
             911.75,89.56 910.91,91.05 911.43,92.74
             911.43,92.74 917.00,100.00 917.00,100.00
             908.31,100.00 911.14,102.55 905.91,104.14
             904.16,104.67 901.38,104.05 900.05,106.33
             898.92,108.26 900.20,119.55 901.00,122.00
             891.82,123.06 893.27,127.66 888.80,128.60
             886.72,129.13 884.29,127.94 882.61,128.60
             877.34,130.40 881.29,137.23 882.00,141.00
             882.00,141.00 872.00,145.00 872.00,145.00
             866.72,136.64 866.59,139.24 860.00,134.00
             862.37,132.67 867.81,129.84 868.23,126.91
             868.56,124.60 866.45,122.64 864.98,121.17
             860.50,116.67 859.79,116.65 856.00,111.00
             856.00,111.00 869.00,108.00 869.00,108.00
             869.00,108.00 862.00,103.00 862.00,103.00
             862.00,103.00 863.00,99.00 863.00,99.00
             863.00,99.00 846.83,93.40 846.83,93.40
             846.83,93.40 846.00,90.00 846.00,90.00
             846.00,90.00 840.00,87.00 840.00,87.00
             839.73,75.28 832.22,76.99 821.01,68.84
             821.01,68.84 811.96,60.91 811.96,60.91
             807.98,58.71 807.29,61.20 803.00,57.00
             803.00,57.00 805.00,55.00 805.00,55.00
             805.00,55.00 798.00,47.00 798.00,47.00
             806.79,40.00 807.16,43.91 816.00,41.00
             816.00,41.00 814.00,37.00 814.00,37.00
             814.00,37.00 830.00,34.22 830.00,34.22 Z" />
</svg>
