<?xml version="1.0" encoding="UTF-8" standalone="no"?>
<!DOCTYPE svg PUBLIC "-//W3C//DTD SVG 20010904//EN"
              "http://www.w3.org/TR/2001/REC-SVG-20010904/DTD/svg10.dtd">

<svg xmlns="http://www.w3.org/2000/svg"
     width="17.0395in" height="8.72113in"
     viewBox="0 0 1227 628">
  <path id="South-America.Argentina"
        fill="none" stroke="black" stroke-width="1"
        d="M 275.61,458.00
           C 277.13,461.70 279.36,464.10 282.00,467.00
             288.84,460.71 287.98,468.04 300.00,462.00
             303.17,466.41 306.20,469.44 311.00,472.10
             311.00,472.10 319.56,476.08 319.56,476.08
             323.18,479.09 319.64,482.63 321.78,485.44
             322.52,486.41 323.87,486.96 325.02,487.24
             331.68,488.82 334.29,482.58 337.00,478.00
             338.40,482.00 339.12,484.10 336.35,487.83
             334.16,490.78 328.70,493.79 329.74,497.98
             331.11,503.49 341.72,505.89 345.58,511.17
             348.77,515.53 344.38,520.12 340.00,520.62
             336.87,520.98 331.05,518.22 328.00,517.00
             328.00,517.00 327.00,518.00 327.00,518.00
             327.00,518.00 327.00,520.00 327.00,520.00
             333.21,523.00 339.52,531.41 331.79,536.64
             327.82,539.32 322.61,538.88 318.00,540.00
             319.69,544.81 319.69,545.19 318.00,550.00
             318.00,550.00 310.00,547.00 310.00,547.00
             310.00,547.00 309.00,548.00 309.00,548.00
             311.11,552.58 311.56,553.47 316.00,556.00
             314.93,558.09 310.34,569.33 310.68,570.99
             311.42,574.58 316.33,576.26 316.27,581.01
             316.19,588.11 309.91,587.42 315.00,598.00
             315.00,598.00 312.00,602.00 312.00,602.00
             312.00,602.00 302.00,601.00 302.00,601.00
             298.76,595.27 296.77,595.62 293.21,589.98
             288.62,582.72 290.71,578.80 282.00,574.00
             282.00,574.00 282.00,572.00 282.00,572.00
             288.31,568.00 285.95,565.67 283.86,560.00
             282.94,557.50 283.14,556.46 281.53,554.00
             278.53,549.43 276.18,549.35 275.25,543.00
             275.25,543.00 273.09,532.00 273.09,532.00
             272.99,528.16 274.66,523.25 273.83,515.00
             272.55,502.16 269.45,496.14 270.53,482.00
             270.90,477.20 269.52,476.63 269.38,473.00
             269.38,473.00 270.54,464.00 270.54,464.00
             270.74,457.99 268.66,452.25 266.00,447.00
             266.00,447.00 269.00,444.00 269.00,444.00
             274.56,449.32 273.07,451.82 275.61,458.00 Z
           M 317.06,609.61
           C 312.66,607.14 313.45,603.34 315.51,602.13
             317.25,601.11 319.41,602.12 321.00,602.92
             321.00,602.92 335.00,611.00 335.00,611.00
             328.94,611.02 322.67,612.76 317.06,609.61 Z" />
</svg>
