<?xml version="1.0" encoding="UTF-8" standalone="no"?>
<!DOCTYPE svg PUBLIC "-//W3C//DTD SVG 20010904//EN"
              "http://www.w3.org/TR/2001/REC-SVG-20010904/DTD/svg10.dtd">

<svg xmlns="http://www.w3.org/2000/svg"
     width="17.0395in" height="8.72113in"
     viewBox="0 0 1227 628">
  <path id="Asia.Ural"
        fill="none" stroke="black" stroke-width="1"
        d="M 767.02,54.61
           C 763.84,50.11 768.50,46.21 773.00,46.41
             777.79,46.62 788.22,59.39 788.07,64.00
             787.99,66.34 786.30,68.22 785.00,69.91
             786.57,70.08 787.35,70.32 788.98,69.91
             790.93,69.21 792.78,67.81 793.58,65.90
             795.84,60.49 789.20,58.21 786.74,54.79
             785.50,53.07 785.42,51.95 785.00,50.09
             785.00,50.09 790.00,50.09 790.00,50.09
             790.00,50.09 797.83,49.23 797.83,49.23
             797.83,49.23 804.00,56.00 804.00,56.00
             804.00,56.00 802.00,58.00 802.00,58.00
             808.80,61.62 808.90,59.81 811.91,61.26
             811.91,61.26 821.00,69.13 821.00,69.13
             821.00,69.13 836.64,78.45 836.64,78.45
             841.26,82.45 837.01,85.46 845.00,90.00
             845.80,96.07 850.25,95.52 855.00,96.76
             855.00,96.76 862.00,99.00 862.00,99.00
             862.00,99.00 861.00,103.00 861.00,103.00
             865.11,104.37 865.52,104.36 868.00,108.00
             868.00,108.00 855.00,111.00 855.00,111.00
             857.53,113.75 868.40,123.81 867.95,126.82
             867.55,129.44 861.19,133.31 859.00,135.00
             867.07,138.48 872.07,141.81 874.00,151.00
             874.00,151.00 866.00,153.00 866.00,153.00
             866.00,153.00 857.96,144.32 857.96,144.32
             857.96,144.32 850.46,138.50 850.46,138.50
             850.46,138.50 843.63,130.35 843.63,130.35
             843.63,130.35 835.42,125.34 835.42,125.34
             835.42,125.34 829.28,120.88 829.28,120.88
             829.28,120.88 820.00,120.88 820.00,120.88
             820.00,120.88 803.00,115.45 803.00,115.45
             803.00,115.45 793.00,117.58 793.00,117.58
             793.00,117.58 777.00,122.00 777.00,122.00
             777.00,122.00 776.00,129.00 776.00,129.00
             771.14,125.30 769.86,123.90 772.00,118.00
             772.00,118.00 761.00,116.00 761.00,116.00
             769.59,113.19 760.16,110.38 757.00,109.00
             757.00,109.00 758.63,103.42 758.63,103.42
             758.63,103.42 756.48,97.00 756.48,97.00
             756.48,97.00 749.00,78.00 749.00,78.00
             749.00,78.00 764.00,67.00 764.00,67.00
             760.43,64.11 759.96,63.49 759.00,59.00
             763.82,60.28 771.42,63.24 776.00,62.00
             776.00,62.00 776.00,60.00 776.00,60.00
             773.27,58.82 768.76,57.06 767.02,54.61 Z" />
</svg>
