<?xml version="1.0" encoding="UTF-8" standalone="no"?>
<!DOCTYPE svg PUBLIC "-//W3C//DTD SVG 20010904//EN"
              "http://www.w3.org/TR/2001/REC-SVG-20010904/DTD/svg10.dtd">

<svg xmlns="http://www.w3.org/2000/svg"
     width="17.0395in" height="8.72113in"
     viewBox="0 0 1227 628">
  <path id="Europe.Western-Europe"
        fill="none" stroke="black" stroke-width="1"
        d="M 561.99,139.91
           C 561.99,139.91 569.92,134.90 569.92,134.90
             569.92,134.90 577.01,139.24 577.01,139.24
             577.01,139.24 588.00,143.00 588.00,143.00
             586.38,148.49 584.88,149.89 581.00,154.00
             585.18,156.87 585.40,161.23 587.00,166.00
             585.03,166.74 583.13,167.53 581.00,167.70
             575.56,168.14 570.85,165.50 571.00,174.00
             564.43,176.19 557.23,181.35 559.00,189.00
             547.89,197.48 554.30,195.04 541.00,197.37
             538.85,197.74 537.26,198.51 535.00,198.10
             535.00,198.10 523.12,194.00 523.12,194.00
             523.12,194.00 523.12,187.00 523.12,187.00
             523.12,187.00 525.30,176.00 525.30,176.00
             525.59,173.40 524.88,169.68 526.75,167.71
             530.69,163.66 542.34,169.44 548.96,167.71
             554.85,166.13 555.90,156.69 552.91,152.21
             550.87,149.15 547.29,148.15 544.00,147.00
             544.00,147.00 544.00,145.00 544.00,145.00
             544.00,145.00 561.99,139.91 561.99,139.91 Z" />
</svg>
