<?xml version="1.0" encoding="UTF-8" standalone="no"?>
<!DOCTYPE svg PUBLIC "-//W3C//DTD SVG 20010904//EN"
              "http://www.w3.org/TR/2001/REC-SVG-20010904/DTD/svg10.dtd">

<svg xmlns="http://www.w3.org/2000/svg"
     width="17.0395in" height="8.72113in"
     viewBox="0 0 1227 628">
  <path id="Africa.East-Africa"
        fill="none" stroke="black" stroke-width="1"
        d="M 708.99,276.00
           C 708.99,276.00 714.61,284.00 714.61,284.00
             716.12,286.60 716.64,289.44 718.51,291.83
             718.51,291.83 730.32,303.04 730.32,303.04
             733.84,307.47 734.59,314.84 741.00,316.18
             746.23,317.27 760.89,312.17 766.00,310.00
             767.43,320.89 765.33,322.31 760.22,332.00
             760.22,332.00 751.37,347.83 751.37,347.83
             751.37,347.83 738.04,359.29 738.04,359.29
             734.02,362.98 732.31,366.08 728.83,370.00
             724.86,374.47 720.43,378.29 718.13,384.00
             713.39,395.73 719.07,401.71 722.00,412.00
             718.74,413.09 712.11,415.54 709.00,415.78
             705.35,416.06 701.89,414.39 699.60,416.61
             694.18,421.87 710.89,436.27 697.00,437.00
             697.31,430.94 696.31,429.90 690.76,427.00
             692.98,420.90 694.74,411.82 690.76,406.17
             687.38,401.97 677.92,397.70 677.27,388.00
             676.96,383.42 680.01,382.36 681.62,378.91
             683.06,375.85 682.24,372.80 685.48,369.80
             690.13,365.47 698.72,362.14 699.84,355.00
             700.37,351.57 698.50,346.81 694.95,345.95
             693.05,345.21 688.38,346.17 686.00,345.95
             681.08,346.08 680.69,344.08 677.00,343.44
             675.13,343.11 673.11,343.83 671.35,342.88
             669.21,341.73 668.41,338.61 666.61,336.28
             666.61,336.28 659.69,328.21 659.69,328.21
             659.69,328.21 655.82,324.41 655.82,324.41
             652.89,320.60 655.06,318.81 650.00,314.00
             649.75,309.48 642.15,296.70 654.00,293.00
             654.00,293.00 654.00,273.00 654.00,273.00
             654.00,273.00 657.00,273.00 657.00,273.00
             657.00,273.00 657.00,263.85 657.00,263.85
             657.00,263.85 684.00,263.85 684.00,263.85
             684.00,263.85 694.00,263.85 694.00,263.85
             694.00,263.85 701.00,259.00 701.00,259.00
             709.76,267.87 704.91,268.85 708.99,276.00 Z" />
</svg>
