<?xml version="1.0" encoding="UTF-8" standalone="no"?>
<!DOCTYPE svg PUBLIC "-//W3C//DTD SVG 20010904//EN"
              "http://www.w3.org/TR/2001/REC-SVG-20010904/DTD/svg10.dtd">

<svg xmlns="http://www.w3.org/2000/svg"
     width="17.0395in" height="8.72113in"
     viewBox="0 0 1227 628">
  <path id="Asia.Manchuria"
        fill="none" stroke="black" stroke-width="1"
        d="M 1008.00,126.70
           C 1013.36,130.30 1015.45,136.01 1024.00,140.79
             1028.46,143.28 1030.83,142.65 1035.00,144.68
             1037.79,146.04 1040.91,148.92 1044.00,148.94
             1047.49,148.96 1047.69,146.66 1054.00,147.00
             1054.13,154.69 1057.42,156.36 1049.00,161.00
             1049.00,161.00 1052.48,166.91 1052.48,166.91
             1052.48,166.91 1052.48,180.61 1052.48,180.61
             1052.48,180.61 1048.00,184.00 1048.00,184.00
             1054.86,192.71 1062.64,191.44 1065.00,204.00
             1065.00,204.00 1056.00,208.00 1056.00,208.00
             1051.78,198.06 1051.56,195.22 1041.00,191.00
             1039.91,181.69 1033.93,184.23 1028.00,187.00
             1028.00,187.00 1023.28,179.67 1023.28,179.67
             1023.28,179.67 1016.09,180.43 1016.09,180.43
             1016.09,180.43 1003.15,171.49 1003.15,171.49
             1003.15,171.49 995.00,175.00 995.00,175.00
             995.00,175.00 992.00,172.00 992.00,172.00
             992.00,172.00 993.00,180.00 993.00,180.00
             986.03,181.15 978.57,184.63 977.00,192.00
             977.00,192.00 968.00,190.00 968.00,190.00
             968.00,190.00 965.00,185.00 965.00,185.00
             965.00,185.00 965.00,192.00 965.00,192.00
             962.77,192.49 959.75,193.36 958.01,191.26
             956.72,189.70 957.45,186.53 954.77,185.50
             952.65,184.69 950.10,186.25 948.00,186.25
             945.43,186.24 942.34,184.17 940.00,183.00
             940.00,183.00 941.00,179.00 941.00,179.00
             941.00,179.00 933.09,177.81 933.09,177.81
             933.09,177.81 915.00,163.35 915.00,163.35
             906.97,158.61 905.80,161.91 901.04,159.98
             896.28,158.06 894.91,152.82 890.83,149.43
             886.30,145.66 885.03,148.22 880.00,142.00
             884.87,139.43 889.15,135.28 895.00,135.35
             903.39,135.46 904.76,141.18 916.00,137.00
             910.13,127.74 921.52,131.19 926.00,132.98
             929.39,134.33 932.32,136.75 936.00,137.38
             939.91,138.05 940.44,136.47 947.00,138.16
             951.31,139.26 957.73,141.90 962.00,141.81
             965.92,141.73 968.45,139.79 972.00,139.41
             977.90,138.80 989.77,145.00 990.06,134.00
             990.10,132.61 989.89,131.32 989.45,130.00
             989.45,130.00 987.00,125.00 987.00,125.00
             994.36,122.87 1001.22,122.15 1008.00,126.70 Z" />
</svg>
