<?xml version="1.0" encoding="UTF-8" standalone="no"?>
<!DOCTYPE svg PUBLIC "-//W3C//DTD SVG 20010904//EN"
              "http://www.w3.org/TR/2001/REC-SVG-20010904/DTD/svg10.dtd">

<svg xmlns="http://www.w3.org/2000/svg"
     width="17.0395in" height="8.72113in"
     viewBox="0 0 1227 628">
  <path id="Asia.Kamchatka"
        fill="none" stroke="black" stroke-width="1"
        d="M 1112.00,60.49
           C 1112.00,60.49 1120.00,63.22 1120.00,63.22
             1120.00,63.22 1133.00,65.62 1133.00,65.62
             1133.00,65.62 1139.00,68.11 1139.00,68.11
             1139.00,68.11 1149.00,68.74 1149.00,68.74
             1149.00,68.74 1159.00,76.00 1159.00,76.00
             1148.66,78.42 1141.38,70.95 1131.00,72.00
             1131.00,72.00 1134.00,76.00 1134.00,76.00
             1134.00,76.00 1126.00,77.00 1126.00,77.00
             1126.00,77.00 1145.00,84.00 1145.00,84.00
             1145.00,84.00 1145.00,86.00 1145.00,86.00
             1141.57,86.41 1138.15,86.08 1135.10,88.01
             1132.29,89.78 1131.01,92.54 1128.79,93.48
             1125.31,94.95 1124.85,92.00 1118.00,94.13
             1115.71,94.85 1109.40,96.23 1109.66,99.33
             1110.00,103.41 1116.16,105.53 1118.73,107.80
             1121.16,109.95 1123.55,115.88 1125.00,119.00
             1125.00,119.00 1122.00,120.00 1122.00,120.00
             1122.00,120.00 1125.00,132.00 1125.00,132.00
             1118.55,133.06 1118.46,130.29 1113.96,126.30
             1108.26,121.23 1107.39,121.89 1102.02,115.00
             1100.52,113.08 1098.40,110.47 1098.09,108.00
             1098.09,108.00 1101.77,92.58 1101.77,92.58
             1101.54,87.94 1098.15,85.99 1094.00,87.00
             1094.00,87.00 1095.00,91.15 1095.00,91.15
             1093.95,91.16 1093.87,91.50 1092.00,91.15
             1088.98,90.96 1077.53,83.66 1077.49,95.00
             1077.49,95.00 1078.00,99.00 1078.00,99.00
             1068.23,100.65 1070.25,97.82 1064.00,97.63
             1064.00,97.63 1055.00,98.82 1055.00,98.82
             1050.36,98.85 1046.30,96.56 1041.13,101.28
             1036.39,105.60 1038.04,109.60 1033.00,117.00
             1036.08,118.32 1040.82,120.82 1044.00,120.97
             1047.26,121.41 1049.16,120.04 1052.00,120.97
             1057.88,122.49 1061.25,128.42 1064.62,132.91
             1066.26,135.10 1068.15,136.57 1069.35,139.09
             1071.89,144.41 1070.70,156.57 1068.57,162.00
             1067.61,164.47 1066.42,167.51 1063.87,168.73
             1061.31,169.96 1058.50,168.79 1056.00,168.00
             1056.00,168.00 1054.00,172.00 1054.00,172.00
             1054.00,172.00 1050.00,161.00 1050.00,161.00
             1058.97,154.49 1053.89,155.29 1055.00,147.00
             1048.39,144.82 1049.03,148.43 1044.00,148.39
             1041.29,148.37 1038.31,146.33 1036.00,145.00
             1036.00,145.00 1036.00,144.00 1036.00,144.00
             1036.00,144.00 1038.00,142.00 1038.00,142.00
             1034.84,140.30 1028.57,136.60 1030.16,132.17
             1030.95,129.98 1035.39,127.23 1033.26,124.44
             1031.66,122.34 1028.26,123.80 1026.00,123.77
             1022.89,123.73 1020.69,122.35 1018.00,121.00
             1018.00,121.00 1022.00,115.00 1022.00,115.00
             1022.00,115.00 1015.31,113.42 1015.31,113.42
             1013.72,112.61 1007.51,104.00 1010.61,100.58
             1013.07,97.87 1019.88,97.97 1021.88,95.56
             1023.43,93.07 1021.44,90.60 1021.88,88.13
             1023.40,83.52 1032.34,85.30 1037.00,85.00
             1037.00,85.00 1032.00,78.00 1032.00,78.00
             1032.00,78.00 1050.00,75.00 1050.00,75.00
             1050.00,75.00 1048.00,68.00 1048.00,68.00
             1048.00,68.00 1059.00,68.00 1059.00,68.00
             1059.00,68.00 1052.00,62.00 1052.00,62.00
             1054.23,60.42 1056.44,58.34 1059.09,57.56
             1066.76,55.29 1074.46,59.80 1082.00,60.00
             1082.00,60.00 1079.00,56.00 1079.00,56.00
             1079.00,56.00 1112.00,60.49 1112.00,60.49 Z" />
</svg>
