<?xml version="1.0" encoding="UTF-8" standalone="no"?>
<!DOCTYPE svg PUBLIC "-//W3C//DTD SVG 20010904//EN"
              "http://www.w3.org/TR/2001/REC-SVG-20010904/DTD/svg10.dtd">

<svg xmlns="http://www.w3.org/2000/svg"
     width="17.0395in" height="8.72113in"
     viewBox="0 0 1227 628">
  <path id="Asia.China"
        fill="none" stroke="black" stroke-width="1"
        d="M 867.45,153.64
           C 869.56,151.99 871.79,152.26 873.24,150.49
             874.94,148.41 873.89,144.36 877.15,143.45
             879.52,142.79 882.09,145.21 884.00,146.32
             886.49,147.77 889.37,148.45 891.53,150.43
             891.53,150.43 898.21,158.61 898.21,158.61
             903.74,163.54 905.82,159.55 913.00,162.80
             917.57,164.87 922.84,169.32 926.63,172.69
             929.14,174.93 930.59,177.59 934.02,178.82
             935.73,179.17 938.19,179.02 940.00,178.82
             940.17,182.12 940.34,182.86 943.07,184.89
             947.88,188.18 950.90,186.07 956.00,184.89
             956.00,184.89 957.00,186.00 957.00,186.00
             956.25,193.57 959.62,194.23 966.00,192.00
             966.00,192.00 967.00,186.00 967.00,186.00
             967.00,186.00 967.00,190.00 967.00,190.00
             967.00,190.00 974.86,192.14 974.86,192.14
             974.86,192.14 980.43,185.92 980.43,185.92
             980.43,185.92 994.00,180.00 994.00,180.00
             994.00,180.00 992.00,173.00 992.00,173.00
             992.00,173.00 996.00,176.00 996.00,176.00
             996.00,176.00 1002.00,171.00 1002.00,171.00
             1006.88,172.50 1014.83,179.89 1018.00,184.00
             1018.00,184.00 1012.00,187.00 1012.00,187.00
             1012.00,187.00 1023.00,196.00 1023.00,196.00
             1026.85,192.32 1029.83,193.17 1034.00,196.00
             1031.51,197.69 1027.52,200.09 1026.46,203.02
             1025.20,206.52 1028.21,208.02 1030.04,210.37
             1030.04,210.37 1033.63,215.91 1033.63,215.91
             1036.92,220.12 1038.91,219.41 1041.00,225.00
             1041.00,225.00 1040.00,225.00 1040.00,225.00
             1040.00,225.00 1038.00,227.00 1038.00,227.00
             1044.85,229.30 1044.53,229.71 1040.71,243.00
             1038.97,249.05 1037.18,254.33 1031.83,258.30
             1026.12,262.54 1015.15,263.64 1012.99,264.60
             1009.97,265.93 1007.41,268.76 1005.00,271.00
             999.94,262.78 999.08,267.64 993.17,264.53
             989.88,262.80 988.11,259.16 984.00,259.03
             980.33,258.91 977.89,261.62 971.00,261.00
             971.00,261.00 971.00,267.00 971.00,267.00
             960.09,265.24 964.86,265.61 958.49,258.21
             957.05,256.53 954.53,254.83 953.83,252.79
             952.71,249.53 955.34,246.45 954.62,243.00
             953.62,238.23 942.55,231.74 938.00,231.55
             932.08,231.31 929.98,237.26 926.79,237.92
             922.08,238.67 921.36,233.15 916.00,237.92
             916.00,237.92 909.00,235.96 909.00,235.96
             909.00,235.96 903.00,233.12 903.00,233.12
             900.52,232.40 898.17,232.99 894.00,231.44
             894.00,231.44 885.00,226.72 885.00,226.72
             876.48,223.61 868.25,225.26 870.24,212.83
             870.65,210.25 870.84,210.24 872.00,208.00
             862.59,200.47 866.10,204.79 859.00,201.65
             859.00,201.65 847.00,195.00 847.00,195.00
             846.90,188.98 844.52,188.60 841.00,184.00
             846.80,180.88 863.31,178.27 862.71,169.00
             862.58,167.07 860.00,162.96 859.00,161.00
             866.33,156.36 864.53,155.92 867.45,153.64 Z
           M 1050.00,250.00
           C 1050.00,250.00 1049.00,263.00 1049.00,263.00
             1042.73,258.84 1043.56,253.41 1050.00,250.00 Z
           M 1007.01,277.84
           C 1003.18,282.80 999.31,276.96 1004.15,274.74
             1005.65,274.05 1007.40,274.09 1009.00,274.00
             1008.40,275.30 1007.89,276.69 1007.01,277.84 Z" />
</svg>
