<?xml version="1.0" encoding="UTF-8" standalone="no"?>
<!DOCTYPE svg PUBLIC "-//W3C//DTD SVG 20010904//EN"
              "http://www.w3.org/TR/2001/REC-SVG-20010904/DTD/svg10.dtd">

<svg xmlns="http://www.w3.org/2000/svg"
     width="17.0395in" height="8.72113in"
     viewBox="0 0 1227 628">
  <path id="Africa.South-Africa"
        fill="none" stroke="black" stroke-width="1"
        d="M 622.59,391.57
           C 625.47,392.96 628.95,404.90 635.31,397.72
             635.31,397.72 637.00,395.00 637.00,395.00
             637.00,395.00 643.40,396.93 643.40,396.93
             643.40,396.93 647.72,411.60 647.72,411.60
             647.72,411.60 654.00,413.78 654.00,413.78
             654.00,413.78 669.00,417.00 669.00,417.00
             672.70,421.74 673.87,423.59 680.00,422.00
             680.00,422.00 680.00,420.00 680.00,420.00
             670.22,415.06 674.01,411.83 674.00,403.00
             676.30,402.12 679.52,400.71 682.00,400.98
             683.91,401.18 685.45,402.10 686.98,403.19
             694.43,408.47 693.11,419.55 690.00,427.00
             691.91,427.88 694.02,428.68 695.37,430.39
             697.20,432.73 696.55,438.92 700.25,437.04
             706.72,433.74 700.92,427.09 699.58,423.00
             698.88,420.86 699.01,418.25 699.00,416.00
             713.03,416.31 708.58,417.74 723.00,412.00
             721.48,423.81 725.57,426.11 721.63,433.00
             717.86,439.61 713.27,439.97 709.10,442.96
             707.28,444.28 699.81,453.12 698.84,455.00
             695.99,460.53 702.44,463.53 700.09,469.98
             697.91,476.02 691.72,475.98 689.06,480.21
             687.21,483.34 688.33,486.70 689.06,490.00
             679.43,497.43 673.15,512.49 659.00,517.58
             653.85,519.47 652.07,517.02 647.00,517.58
             642.65,518.00 637.15,521.10 633.23,518.25
             629.20,515.32 630.71,511.19 629.88,508.00
             629.41,506.22 626.98,501.96 625.99,500.00
             623.71,495.50 619.61,491.01 618.39,487.00
             616.45,480.64 617.86,473.93 612.94,461.00
             609.97,453.21 603.99,446.85 604.19,438.00
             604.37,430.11 611.65,418.30 612.04,415.00
             612.04,415.00 609.76,399.00 609.76,399.00
             608.77,395.62 608.03,396.09 607.00,391.00
             609.82,391.00 620.67,390.65 622.59,391.57 Z" />
</svg>
