<?xml version="1.0" encoding="UTF-8" standalone="no"?>
<!DOCTYPE svg PUBLIC "-//W3C//DTD SVG 20010904//EN"
              "http://www.w3.org/TR/2001/REC-SVG-20010904/DTD/svg10.dtd">

<svg xmlns="http://www.w3.org/2000/svg"
     width="17.0395in" height="8.72113in"
     viewBox="0 0 1227 628">
  <path id="South-America.Brazil"
        fill="none" stroke="black" stroke-width="1"
        d="M 295.00,345.04
           C 297.02,344.32 300.55,341.67 302.65,342.44
             305.54,343.49 303.43,348.04 303.95,351.00
             305.79,361.59 317.56,353.75 324.00,353.13
             327.28,353.06 330.73,354.70 333.82,353.13
             336.04,351.73 338.61,347.34 341.00,345.00
             341.00,345.00 346.00,356.00 346.00,356.00
             343.98,362.80 340.19,364.51 336.00,370.00
             342.06,368.61 342.79,365.02 346.98,363.84
             350.05,362.99 352.80,364.98 351.18,367.91
             350.12,369.82 347.80,370.94 346.00,371.78
             347.85,372.03 349.18,372.19 351.00,371.78
             355.46,370.00 357.33,365.45 363.98,368.84
             366.00,369.87 367.42,370.91 368.21,373.10
             368.21,373.10 369.00,378.00 369.00,378.00
             370.78,376.83 371.81,375.94 374.00,375.46
             376.83,374.84 388.20,376.46 390.72,377.98
             393.05,379.39 394.73,382.03 399.00,384.47
             404.41,387.55 409.50,386.25 410.44,394.00
             411.72,404.47 396.83,418.10 394.82,424.01
             393.53,427.47 395.11,430.33 394.82,435.00
             394.60,441.78 391.14,457.17 387.59,462.83
             383.66,469.10 379.61,466.98 376.00,468.08
             372.84,469.05 364.45,473.89 362.18,476.30
             357.85,480.93 361.75,482.47 360.05,489.00
             360.05,489.00 354.70,503.00 354.70,503.00
             354.70,503.00 349.00,513.00 349.00,513.00
             349.00,513.00 340.00,506.22 340.00,506.22
             340.00,506.22 333.19,502.04 333.19,502.04
             331.29,500.58 329.54,498.60 330.01,496.01
             331.17,489.66 341.41,489.24 337.85,479.00
             334.16,468.38 327.08,469.47 322.51,464.47
             322.51,464.47 316.00,451.00 316.00,451.00
             325.68,441.66 309.00,434.58 308.51,434.15
             305.90,431.91 306.37,428.72 302.78,425.63
             298.20,421.69 290.16,420.50 287.53,418.28
             284.59,415.79 283.20,410.59 282.00,407.00
             282.00,407.00 268.04,412.79 268.04,412.79
             265.01,412.79 263.68,410.02 261.63,408.71
             258.86,406.94 252.52,407.10 250.26,399.00
             249.14,396.20 249.70,394.68 250.26,392.00
             252.57,385.16 256.55,381.22 264.00,384.00
             264.00,384.00 266.34,372.00 266.34,372.00
             266.34,372.00 264.90,365.04 264.90,365.04
             264.90,365.04 264.90,356.00 264.90,356.00
             264.90,356.00 275.00,354.00 275.00,354.00
             277.53,358.55 279.68,361.49 284.92,358.03
             286.21,357.18 287.75,355.86 288.33,354.38
             289.08,352.49 287.37,347.38 287.00,345.04
             290.22,345.66 291.76,346.29 295.00,345.04 Z" />
</svg>
