<?xml version="1.0" encoding="UTF-8" standalone="no"?>
<!DOCTYPE svg PUBLIC "-//W3C//DTD SVG 20010904//EN"
              "http://www.w3.org/TR/2001/REC-SVG-20010904/DTD/svg10.dtd">

<svg xmlns="http://www.w3.org/2000/svg"
     width="17.0395in" height="8.72113in"
     viewBox="0 0 1227 628">
  <path id="South-America.Peru"
        fill="none" stroke="black" stroke-width="1"
        d="M 233.00,361.20
           C 233.00,361.20 242.79,365.01 242.79,365.01
             242.79,365.01 252.00,373.52 252.00,373.52
             252.00,373.52 262.00,376.00 262.00,376.00
             262.00,376.00 261.00,382.00 261.00,382.00
             257.72,382.78 254.80,383.52 252.51,386.22
             245.04,395.02 250.47,407.76 262.00,408.00
             268.04,418.69 269.14,411.02 282.00,408.00
             283.00,412.21 284.54,416.59 288.18,419.28
             291.03,421.37 297.43,422.24 301.78,425.35
             305.59,428.07 304.91,430.83 307.51,433.72
             309.64,436.11 311.95,436.33 313.62,437.39
             318.73,440.61 320.49,447.12 315.00,451.00
             320.09,458.22 318.62,460.88 322.28,464.67
             326.24,468.79 332.88,470.02 334.94,474.10
             336.92,478.03 333.89,484.69 329.91,486.12
             327.38,487.24 323.68,486.35 321.04,486.12
             321.38,483.33 322.52,479.62 321.04,477.22
             319.31,474.28 314.05,473.16 311.00,471.62
             305.66,468.93 302.82,466.23 300.00,461.00
             290.19,467.46 292.87,460.06 281.00,466.00
             272.04,454.24 278.52,454.39 269.00,443.00
             269.00,443.00 265.00,447.00 265.00,447.00
             257.91,437.55 249.95,436.38 245.33,432.37
             241.79,429.29 241.10,425.75 238.94,422.00
             238.94,422.00 231.40,411.00 231.40,411.00
             231.40,411.00 225.65,398.00 225.65,398.00
             222.54,392.82 218.41,391.15 217.81,386.00
             217.32,381.76 220.58,378.14 223.00,375.00
             214.01,370.97 221.45,362.82 225.00,357.00
             225.00,357.00 233.00,361.20 233.00,361.20 Z" />
</svg>
