<?xml version="1.0" encoding="UTF-8" standalone="no"?>
<!DOCTYPE svg PUBLIC "-//W3C//DTD SVG 20010904//EN"
              "http://www.w3.org/TR/2001/REC-SVG-20010904/DTD/svg10.dtd">

<svg xmlns="http://www.w3.org/2000/svg"
     width="17.0395in" height="8.72113in"
     viewBox="0 0 1227 628">
  <path id="Africa.Congo"
        fill="none" stroke="black" stroke-width="1"
        d="M 615.75,336.00
           C 617.18,329.52 622.35,330.47 627.00,328.49
             627.00,328.49 641.00,319.51 641.00,319.51
             643.15,317.97 646.93,314.40 649.75,315.01
             652.71,315.67 652.74,320.12 654.30,322.90
             655.36,324.79 665.96,335.42 668.00,337.00
             668.47,345.36 674.44,343.49 677.00,343.86
             680.27,344.34 681.39,346.31 684.28,346.89
             690.54,348.15 697.13,342.36 699.05,352.00
             701.01,361.79 688.03,366.48 684.48,370.23
             681.32,373.57 682.24,376.06 681.11,378.85
             679.93,381.75 677.41,383.28 676.70,386.01
             675.70,389.84 680.19,396.58 682.00,400.00
             682.00,400.00 673.00,403.00 673.00,403.00
             674.22,411.70 668.74,413.81 679.00,420.00
             679.00,420.00 679.00,422.00 679.00,422.00
             671.80,422.92 673.15,419.88 667.91,417.34
             662.84,414.88 653.65,412.64 648.00,413.00
             645.46,404.21 647.40,393.59 639.10,395.06
             635.48,395.70 633.65,401.13 629.22,398.89
             626.40,397.46 625.99,393.60 623.59,391.60
             620.27,388.84 610.03,390.02 606.00,391.00
             604.01,378.38 595.88,378.19 593.69,370.00
             592.71,366.34 595.38,358.37 596.00,354.00
             596.00,354.00 618.00,354.54 618.00,354.54
             618.00,354.54 623.00,353.00 623.00,353.00
             620.75,348.60 614.68,340.89 615.75,336.00 Z" />
</svg>
