<?xml version="1.0" encoding="UTF-8" standalone="no"?>
<!DOCTYPE svg PUBLIC "-//W3C//DTD SVG 20010904//EN"
              "http://www.w3.org/TR/2001/REC-SVG-20010904/DTD/svg10.dtd">

<svg xmlns="http://www.w3.org/2000/svg"
     width="17.0395in" height="8.72113in"
     viewBox="0 0 1227 628">
  <path id="North-America.Eastern-United-States"
        fill="none" stroke="black" stroke-width="1"
        d="M 227.00,148.00
           C 227.00,148.00 222.00,150.00 222.00,150.00
             222.00,150.00 223.00,154.00 223.00,154.00
             234.41,150.67 229.19,151.21 239.00,153.10
             242.28,153.74 242.03,152.97 245.00,155.00
             235.21,156.39 232.65,158.30 227.93,166.91
             225.40,171.51 224.76,170.87 226.00,176.00
             237.79,168.94 232.04,158.89 248.00,158.00
             245.83,163.19 243.94,163.53 248.00,167.00
             248.00,167.00 244.00,176.00 244.00,176.00
             252.95,175.05 252.60,172.31 259.00,168.96
             262.49,167.14 264.02,168.25 267.00,167.23
             270.43,166.06 272.08,163.38 278.00,161.25
             284.36,158.95 289.12,160.97 293.83,158.57
             299.13,155.86 297.78,152.43 308.00,150.00
             308.00,150.00 308.00,160.00 308.00,160.00
             308.00,160.00 295.11,166.64 295.11,166.64
             291.51,169.43 291.80,171.77 287.87,173.90
             287.87,173.90 278.18,177.49 278.18,177.49
             275.62,178.82 274.12,181.34 271.82,183.04
             263.89,188.89 262.69,185.72 258.00,196.00
             261.51,199.47 256.96,204.14 253.98,206.45
             246.68,212.10 234.90,215.22 231.70,225.00
             229.10,232.97 236.02,237.91 230.00,249.00
             223.56,244.66 225.10,240.35 224.27,234.00
             223.43,227.64 218.12,228.08 215.00,227.30
             208.83,225.76 203.68,221.03 198.00,231.00
             198.00,231.00 184.00,227.55 184.00,227.55
             180.54,227.69 174.34,231.95 171.00,233.75
             169.03,234.81 167.18,235.67 165.65,237.39
             163.19,240.17 162.75,245.48 159.17,243.83
             155.25,242.03 155.96,235.31 151.78,231.16
             147.04,226.47 144.52,230.98 141.27,229.71
             141.27,229.71 133.00,219.00 133.00,219.00
             136.32,219.00 143.90,219.74 146.28,217.40
             149.78,213.96 149.57,200.78 154.28,198.60
             155.84,197.87 159.22,198.00 161.00,197.90
             161.00,197.90 181.00,197.90 181.00,197.90
             182.52,198.00 185.57,198.06 186.95,197.90
             189.69,196.95 190.57,195.47 191.61,192.98
             195.69,183.24 189.37,179.18 190.48,172.00
             191.01,168.58 193.33,166.23 194.55,163.17
             196.88,157.29 198.00,149.30 198.00,143.00
             209.51,143.00 216.45,141.73 227.00,148.00 Z" />
</svg>
