<?xml version="1.0" encoding="UTF-8" standalone="no"?>
<!DOCTYPE svg PUBLIC "-//W3C//DTD SVG 20010904//EN"
              "http://www.w3.org/TR/2001/REC-SVG-20010904/DTD/svg10.dtd">

<svg xmlns="http://www.w3.org/2000/svg"
     width="17.0395in" height="8.72113in"
     viewBox="0 0 1227 628">
  <path id="North-America.Western-United-States"
        fill="none" stroke="black" stroke-width="1"
        d="M 115.21,143.60
           C 115.21,143.60 139.00,143.00 139.00,143.00
             139.00,143.00 197.00,143.00 197.00,143.00
             197.00,150.56 196.44,155.78 193.83,163.00
             193.83,163.00 189.82,172.00 189.82,172.00
             189.00,176.26 192.21,182.71 192.44,186.00
             192.65,188.88 190.72,193.85 190.00,197.00
             190.00,197.00 161.00,197.00 161.00,197.00
             158.79,197.00 155.29,196.78 153.42,198.02
             148.65,201.19 149.29,215.22 144.70,217.40
             143.06,218.18 137.37,217.99 135.00,218.29
             127.44,219.23 122.14,222.37 114.00,220.61
             109.51,219.64 105.70,216.50 102.00,215.49
             102.00,215.49 94.37,214.43 94.37,214.43
             92.80,213.75 91.87,212.44 90.63,211.34
             90.63,211.34 85.82,207.37 85.82,207.37
             83.07,203.98 82.51,195.87 84.00,192.00
             78.74,186.21 82.91,180.42 86.32,175.00
             86.32,175.00 90.64,167.00 90.64,167.00
             96.33,158.82 99.94,158.22 103.00,147.00
             103.00,147.00 108.00,147.00 108.00,147.00
             108.00,147.00 108.00,151.00 108.00,151.00
             108.00,151.00 115.21,143.60 115.21,143.60 Z" />
</svg>
