<?xml version="1.0" encoding="UTF-8" standalone="no"?>
<!DOCTYPE svg PUBLIC "-//W3C//DTD SVG 20010904//EN"
              "http://www.w3.org/TR/2001/REC-SVG-20010904/DTD/svg10.dtd">

<svg xmlns="http://www.w3.org/2000/svg"
     width="17.0395in" height="8.72113in"
     viewBox="0 0 1227 628">
  <path id="Europe.Great-Britain"
        fill="none" stroke="black" stroke-width="1"
        d="M 550.00,104.00
           C 550.00,104.00 554.00,107.00 554.00,107.00
             554.00,107.00 550.00,112.00 550.00,112.00
             557.94,115.24 558.85,119.59 562.00,127.00
             562.00,127.00 567.00,128.00 567.00,128.00
             567.00,128.00 562.00,132.00 562.00,132.00
             562.00,132.00 563.00,132.00 563.00,132.00
             563.00,132.00 564.00,134.00 564.00,134.00
             564.00,134.00 542.00,136.00 542.00,136.00
             542.00,136.00 551.00,132.00 551.00,132.00
             551.00,132.00 544.00,129.00 544.00,129.00
             544.00,129.00 547.00,128.00 547.00,128.00
             547.00,128.00 546.00,125.00 546.00,125.00
             551.56,122.65 551.64,121.65 550.00,116.00
             542.19,116.26 542.95,106.69 550.00,104.00 Z
           M 542.00,117.00
           C 538.59,128.14 538.41,128.78 527.00,132.00
             527.00,132.00 527.00,120.00 527.00,120.00
             533.54,117.44 534.74,114.97 542.00,117.00 Z" />
</svg>
