<?xml version="1.0" encoding="UTF-8" standalone="no"?>
<!DOCTYPE svg PUBLIC "-//W3C//DTD SVG 20010904//EN"
              "http://www.w3.org/TR/2001/REC-SVG-20010904/DTD/svg10.dtd">

<svg xmlns="http://www.w3.org/2000/svg"
     width="17.0395in" height="8.72113in"
     viewBox="0 0 1227 628">
  <path id="Asia.Japan"
        fill="none" stroke="black" stroke-width="1"
        d="M 1072.21,131.68
           C 1077.11,136.41 1080.63,136.03 1084.00,143.00
             1084.00,143.00 1080.00,143.00 1080.00,143.00
             1080.00,143.00 1089.00,155.00 1089.00,155.00
             1080.56,153.62 1080.20,146.42 1075.78,140.00
             1071.33,133.54 1067.25,131.27 1063.00,124.00
             1069.03,125.82 1068.19,127.80 1072.21,131.68 Z
           M 1096.00,163.90
           C 1096.00,163.90 1106.00,168.00 1106.00,168.00
             1106.00,168.00 1102.00,173.00 1102.00,173.00
             1102.00,173.00 1092.00,172.00 1092.00,172.00
             1092.00,172.00 1093.00,176.00 1093.00,176.00
             1086.84,170.65 1090.00,170.24 1089.56,165.00
             1089.56,165.00 1088.00,159.00 1088.00,159.00
             1088.00,159.00 1096.00,163.90 1096.00,163.90 Z
           M 1105.06,193.00
           C 1105.59,196.40 1107.72,199.39 1105.06,202.72
             1102.71,206.14 1097.80,205.97 1094.00,206.00
             1094.00,206.00 1092.00,212.00 1092.00,212.00
             1090.22,209.84 1088.97,207.94 1085.99,207.20
             1080.89,206.48 1078.79,210.57 1073.00,207.20
             1073.00,207.20 1080.00,203.05 1080.00,203.05
             1080.00,203.05 1086.00,201.75 1086.00,201.75
             1089.88,200.38 1097.58,194.46 1097.72,190.00
             1097.78,187.78 1094.84,181.96 1094.00,179.00
             1094.00,179.00 1095.00,178.00 1095.00,178.00
             1105.71,181.45 1103.73,187.69 1105.06,193.00 Z
           M 1086.00,210.00
           C 1086.00,210.00 1082.00,215.00 1082.00,215.00
             1082.00,215.00 1081.00,211.00 1081.00,211.00
             1081.00,211.00 1086.00,210.00 1086.00,210.00 Z
           M 1076.00,222.00
           C 1076.00,222.00 1072.00,211.00 1072.00,211.00
             1076.75,212.92 1081.80,217.90 1076.00,222.00 Z" />
</svg>
