<?xml version="1.0" encoding="UTF-8" standalone="no"?>
<!DOCTYPE svg PUBLIC "-//W3C//DTD SVG 20010904//EN"
              "http://www.w3.org/TR/2001/REC-SVG-20010904/DTD/svg10.dtd">

<svg xmlns="http://www.w3.org/2000/svg"
     width="17.0395in" height="8.72113in"
     viewBox="0 0 1227 628">
  <path id="Europe.Ukraine"
        fill="none" stroke="black" stroke-width="1"
        d="M 757.23,59.72
           C 757.23,59.72 763.00,68.00 763.00,68.00
             763.00,68.00 748.00,78.00 748.00,78.00
             748.00,78.00 749.84,84.00 749.84,84.00
             749.84,84.00 753.50,90.00 753.50,90.00
             753.50,90.00 757.86,103.00 757.86,103.00
             757.86,103.00 756.00,109.00 756.00,109.00
             756.00,109.00 765.00,112.00 765.00,112.00
             765.00,112.00 765.00,115.00 765.00,115.00
             765.00,115.00 760.00,116.00 760.00,116.00
             764.93,119.37 765.41,118.43 771.00,118.00
             769.29,126.75 774.75,127.63 780.00,134.00
             771.87,136.86 773.25,134.26 767.00,134.00
             763.96,133.60 762.03,134.70 759.00,134.00
             752.37,133.09 742.31,124.99 736.00,138.00
             736.00,138.00 732.00,137.00 732.00,137.00
             731.33,138.86 730.33,140.93 730.81,142.96
             731.53,146.05 739.28,151.90 742.00,154.00
             742.00,154.00 734.00,164.00 734.00,164.00
             737.80,166.36 747.92,179.68 750.00,184.00
             750.00,184.00 746.00,189.00 746.00,189.00
             738.64,180.65 738.75,190.00 730.00,185.06
             724.83,182.14 724.53,180.18 721.64,177.49
             721.64,177.49 717.68,174.32 717.68,174.32
             717.68,174.32 713.73,169.63 713.73,169.63
             711.67,167.83 701.92,162.55 699.00,161.00
             699.00,161.00 703.00,149.00 703.00,149.00
             703.00,149.00 688.00,155.00 688.00,155.00
             688.00,155.00 694.00,159.00 694.00,159.00
             688.42,161.33 686.54,162.93 682.00,158.00
             682.00,158.00 684.00,156.00 684.00,156.00
             684.00,156.00 679.00,152.00 679.00,152.00
             672.36,155.04 670.38,158.72 668.02,158.66
             664.00,158.57 664.01,151.54 659.87,148.24
             657.27,146.56 646.51,147.53 643.00,148.24
             641.54,137.91 645.51,139.49 646.39,134.91
             646.71,133.22 646.01,131.62 645.66,130.00
             644.35,124.00 645.25,123.22 640.00,119.00
             640.00,119.00 641.00,116.00 641.00,116.00
             641.00,116.00 636.00,115.00 636.00,115.00
             635.58,112.54 634.33,107.92 637.43,106.67
             639.24,105.94 642.83,107.48 643.82,105.48
             644.53,104.05 642.59,100.46 642.00,99.00
             653.05,96.32 651.54,101.66 661.00,95.00
             661.00,95.00 656.00,93.00 656.00,93.00
             660.95,90.21 661.77,88.53 665.00,84.00
             657.82,79.69 658.58,72.70 656.45,65.58
             655.90,63.24 653.22,60.36 656.45,57.87
             659.84,55.07 663.50,58.11 667.00,59.12
             667.00,59.12 673.00,59.12 673.00,59.12
             679.05,60.04 689.54,62.87 693.00,68.00
             689.29,69.39 687.08,70.22 683.00,69.89
             675.96,69.33 673.24,65.34 666.00,69.00
             675.59,73.48 676.57,83.76 687.00,78.00
             687.00,78.00 682.00,75.00 682.00,75.00
             682.00,75.00 693.00,75.00 693.00,75.00
             693.00,75.00 692.00,72.00 692.00,72.00
             692.00,72.00 703.00,69.00 703.00,69.00
             703.00,69.00 701.00,63.00 701.00,63.00
             701.00,63.00 707.00,64.00 707.00,64.00
             707.00,64.00 706.00,66.00 706.00,66.00
             714.69,68.47 715.10,64.04 723.00,62.10
             728.57,60.44 728.85,61.90 733.00,62.10
             738.71,63.04 740.87,60.13 748.00,62.10
             746.79,57.56 744.54,58.36 741.00,56.00
             744.90,55.24 754.27,56.92 757.23,59.72 Z" />
</svg>
