<?xml version="1.0" encoding="UTF-8" standalone="no"?>
<!DOCTYPE svg PUBLIC "-//W3C//DTD SVG 20010904//EN"
              "http://www.w3.org/TR/2001/REC-SVG-20010904/DTD/svg10.dtd">

<svg xmlns="http://www.w3.org/2000/svg"
     width="17.0395in" height="8.72113in"
     viewBox="0 0 1227 628">
  <path id="Europe.Southern-Europe"
        fill="none" stroke="black" stroke-width="1"
        d="M 599.17,150.23
           C 606.12,148.29 613.30,140.83 619.72,143.89
             624.21,146.04 620.09,149.91 621.17,152.79
             622.87,157.27 635.05,159.76 642.00,147.95
             642.00,147.95 657.95,147.95 657.95,147.95
             657.95,147.95 668.00,160.00 668.00,160.00
             668.00,160.00 664.00,173.00 664.00,173.00
             659.54,174.16 659.27,174.65 658.00,179.00
             653.61,178.44 652.99,178.75 650.00,182.00
             641.85,182.04 647.42,186.62 647.94,191.00
             648.26,193.70 647.10,195.67 646.00,198.00
             646.00,198.00 640.00,191.00 640.00,191.00
             640.00,191.00 645.00,189.00 645.00,189.00
             641.56,188.08 637.31,187.59 635.01,184.61
             632.09,180.84 633.80,176.06 628.67,171.43
             625.07,168.17 612.22,164.22 609.00,157.00
             602.53,160.89 605.67,162.89 609.73,167.16
             620.71,178.72 623.25,176.25 629.00,182.00
             629.00,182.00 621.00,182.00 621.00,182.00
             623.02,186.70 622.91,187.62 619.00,191.00
             619.12,178.12 609.96,178.23 602.10,172.06
             595.52,166.90 597.63,160.72 588.00,165.00
             588.00,165.00 582.00,154.00 582.00,154.00
             589.31,144.45 593.03,151.94 599.17,150.23 Z
           M 617.00,192.00
           C 617.00,192.00 616.00,197.00 616.00,197.00
             616.00,197.00 607.00,192.00 607.00,192.00
             607.00,192.00 617.00,192.00 617.00,192.00 Z" />
</svg>
