<?xml version="1.0" encoding="UTF-8" standalone="no"?>
<!DOCTYPE svg PUBLIC "-//W3C//DTD SVG 20010904//EN"
              "http://www.w3.org/TR/2001/REC-SVG-20010904/DTD/svg10.dtd">

<svg xmlns="http://www.w3.org/2000/svg"
     width="17.0395in" height="8.72113in"
     viewBox="0 0 1227 628">
  <path id="North-America.Alberta"
        fill="none" stroke="black" stroke-width="1"
        d="M 107.00,96.00
           C 107.00,96.00 131.00,96.00 131.00,96.00
             131.00,96.00 219.00,96.00 219.00,96.00
             219.00,96.00 200.42,124.00 200.42,124.00
             200.42,124.00 191.37,140.40 191.37,140.40
             191.37,140.40 183.00,142.00 183.00,142.00
             183.00,142.00 113.00,142.00 113.00,142.00
             110.33,134.18 105.97,134.34 105.24,130.05
             105.02,128.73 105.82,120.40 106.47,119.24
             107.85,116.76 110.44,115.91 111.55,112.95
             111.82,111.60 111.61,109.48 111.55,108.00
             112.32,98.99 109.97,96.93 101.00,98.00
             101.00,98.00 107.00,96.00 107.00,96.00 Z" />
</svg>
