<?xml version="1.0" encoding="UTF-8" standalone="no"?>
<!DOCTYPE svg PUBLIC "-//W3C//DTD SVG 20010904//EN"
              "http://www.w3.org/TR/2001/REC-SVG-20010904/DTD/svg10.dtd">

<svg xmlns="http://www.w3.org/2000/svg"
     width="17.0395in" height="8.72113in"
     viewBox="0 0 1227 628">
  <path id="Asia.Yakutsk"
        fill="none" stroke="black" stroke-width="1"
        d="M 898.00,44.21
           C 900.89,44.18 902.40,43.18 906.00,43.55
             906.00,43.55 916.00,45.40 916.00,45.40
             916.00,45.40 927.00,44.01 927.00,44.01
             942.18,43.66 942.29,49.85 951.00,52.55
             955.45,53.92 956.91,51.59 961.00,51.38
             968.34,51.00 966.37,54.38 977.00,50.00
             977.00,50.00 975.00,48.00 975.00,48.00
             975.00,48.00 975.00,47.00 975.00,47.00
             985.14,45.18 986.55,46.83 996.00,48.14
             998.44,48.48 999.32,48.20 1002.00,48.94
             1002.00,48.94 1012.00,52.61 1012.00,52.61
             1012.00,52.61 1030.00,53.70 1030.00,53.70
             1030.00,53.70 1038.00,53.70 1038.00,53.70
             1043.21,54.24 1044.36,57.50 1055.00,58.00
             1055.00,58.00 1051.00,63.00 1051.00,63.00
             1054.80,64.38 1055.88,64.43 1058.00,68.00
             1051.66,67.49 1045.36,65.65 1049.00,75.00
             1045.82,74.97 1033.53,74.22 1032.73,78.57
             1032.43,80.20 1035.09,83.60 1036.00,85.00
             1031.77,84.24 1023.47,82.29 1021.80,88.06
             1020.99,90.89 1023.53,93.76 1020.64,95.82
             1018.14,97.61 1010.06,97.42 1008.96,102.10
             1008.13,105.68 1011.49,106.03 1012.00,113.00
             1000.24,113.00 992.30,111.15 981.00,108.94
             977.98,108.34 974.89,108.91 972.00,107.74
             965.50,105.09 963.40,99.23 958.99,97.09
             958.99,97.09 954.00,95.82 954.00,95.82
             948.32,94.05 947.01,91.16 943.00,98.00
             943.00,98.00 930.00,98.00 930.00,98.00
             930.00,98.00 928.15,91.21 928.15,91.21
             928.15,91.21 903.24,74.65 903.24,74.65
             903.24,74.65 889.00,57.00 889.00,57.00
             889.00,57.00 896.00,50.00 896.00,50.00
             896.00,50.00 885.00,43.00 885.00,43.00
             891.55,41.69 892.59,44.27 898.00,44.21 Z" />
</svg>
