<?xml version="1.0" encoding="UTF-8" standalone="no"?>
<!DOCTYPE svg PUBLIC "-//W3C//DTD SVG 20010904//EN"
              "http://www.w3.org/TR/2001/REC-SVG-20010904/DTD/svg10.dtd">

<svg xmlns="http://www.w3.org/2000/svg"
     width="17.0395in" height="8.72113in"
     viewBox="0 0 1227 628">
  <path id="South-America.Venezuela"
        fill="none" stroke="black" stroke-width="1"
        d="M 244.39,315.57
           C 244.39,315.57 252.00,311.48 252.00,311.48
             252.00,311.48 260.00,308.00 260.00,308.00
             256.92,314.12 256.01,316.24 258.00,323.00
             263.47,316.24 258.09,314.63 264.06,311.47
             269.25,308.73 271.24,313.74 278.00,315.83
             289.40,319.36 289.01,314.53 302.00,322.20
             310.85,327.42 309.79,331.68 317.00,335.58
             322.82,338.74 324.74,336.54 330.00,337.70
             334.94,338.78 337.12,341.08 340.00,345.00
             338.71,346.76 336.10,350.96 334.47,352.25
             331.71,353.78 328.02,352.43 325.00,352.25
             322.96,352.53 319.16,353.58 317.00,354.11
             313.95,354.85 309.26,357.56 306.65,355.36
             302.13,351.55 306.98,344.30 303.19,341.99
             301.06,340.69 297.75,343.60 295.00,344.60
             291.61,345.82 290.20,345.12 287.24,344.00
             286.48,350.03 288.77,351.84 287.24,354.79
             286.84,356.25 285.32,357.44 283.91,358.11
             278.86,360.49 276.90,356.96 275.00,353.00
             275.00,353.00 264.15,356.00 264.15,356.00
             264.15,356.00 264.15,365.00 264.15,365.00
             264.15,365.00 265.54,371.00 265.54,371.00
             265.54,371.00 264.00,383.00 264.00,383.00
             264.00,383.00 260.52,375.28 260.52,375.28
             260.52,375.28 251.04,372.65 251.04,372.65
             251.04,372.65 241.96,364.01 241.96,364.01
             241.96,364.01 226.00,357.00 226.00,357.00
             233.13,345.71 236.12,343.54 231.00,330.00
             231.00,330.00 244.39,315.57 244.39,315.57 Z" />
</svg>
