<?xml version="1.0" encoding="UTF-8" standalone="no"?>
<!DOCTYPE svg PUBLIC "-//W3C//DTD SVG 20010904//EN"
              "http://www.w3.org/TR/2001/REC-SVG-20010904/DTD/svg10.dtd">

<svg xmlns="http://www.w3.org/2000/svg"
     width="17.0395in" height="8.72113in"
     viewBox="0 0 1227 628">
  <path id="North-America.Alaska"
        fill="none" stroke="black" stroke-width="1"
        d="M 72.00,59.22
           C 72.00,59.22 82.00,55.75 82.00,55.75
             85.91,54.65 104.34,51.92 108.00,52.18
             108.00,52.18 123.00,54.57 123.00,54.57
             128.72,55.40 135.97,55.08 141.00,58.00
             141.00,58.00 109.00,83.20 109.00,83.20
             106.80,84.96 98.43,90.56 98.66,93.32
             99.12,99.02 106.52,97.70 108.77,99.04
             112.92,101.50 111.53,112.22 110.00,116.00
             105.07,109.40 110.45,108.18 105.59,103.40
             100.23,98.12 82.64,91.58 75.00,91.85
             75.00,91.85 64.00,95.06 64.00,95.06
             58.88,96.04 57.78,94.08 53.00,95.95
             53.00,95.95 44.00,100.65 44.00,100.65
             44.00,100.65 34.00,103.93 34.00,103.93
             34.00,103.93 21.00,109.68 21.00,109.68
             16.24,111.46 12.04,113.93 7.00,112.00
             15.73,109.65 24.97,105.71 32.00,100.00
             26.17,100.08 25.08,101.84 20.00,98.00
             25.65,94.37 26.49,93.74 26.00,87.00
             41.14,79.33 40.43,86.79 54.00,76.00
             47.12,75.55 44.71,78.55 38.00,74.00
             51.92,66.38 49.33,73.74 63.00,68.00
             63.00,68.00 59.00,62.00 59.00,62.00
             67.18,59.35 67.14,60.56 72.00,59.22 Z" />
</svg>
