<?xml version="1.0" encoding="UTF-8" standalone="no"?>
<!DOCTYPE svg PUBLIC "-//W3C//DTD SVG 20010904//EN"
              "http://www.w3.org/TR/2001/REC-SVG-20010904/DTD/svg10.dtd">

<svg xmlns="http://www.w3.org/2000/svg"
     width="17.0395in" height="8.72113in"
     viewBox="0 0 1227 628">
  <path id="Asia.Irkutsk"
        fill="none" stroke="black" stroke-width="1"
        d="M 927.18,90.63
           C 929.34,93.25 928.60,97.06 932.14,98.31
             933.54,98.81 940.39,98.29 941.79,97.71
             944.84,96.46 945.21,93.30 949.98,94.72
             949.98,94.72 960.83,98.60 960.83,98.60
             963.88,100.72 967.12,106.52 973.00,108.61
             973.00,108.61 982.00,109.90 982.00,109.90
             989.30,111.57 996.51,113.15 1004.00,113.85
             1004.00,113.85 1012.00,113.85 1012.00,113.85
             1012.00,113.85 1021.00,115.00 1021.00,115.00
             1021.00,115.00 1017.00,121.00 1017.00,121.00
             1017.00,121.00 1026.00,124.58 1026.00,124.58
             1026.00,124.58 1032.92,124.58 1032.92,124.58
             1032.92,124.58 1029.62,134.01 1029.62,134.01
             1029.62,134.01 1037.00,143.00 1037.00,143.00
             1029.73,143.43 1022.52,140.38 1017.17,135.54
             1013.01,131.78 1010.33,127.17 1005.00,124.78
             997.86,121.08 993.01,122.31 986.00,124.78
             990.39,131.00 989.05,131.07 990.00,138.00
             980.25,142.41 981.20,138.20 973.00,138.61
             968.61,138.83 966.78,141.15 961.00,140.90
             955.30,140.64 950.32,137.98 945.00,136.94
             940.16,135.99 938.45,137.48 934.00,136.20
             934.00,136.20 923.00,131.30 923.00,131.30
             917.30,129.60 911.95,129.27 915.00,137.00
             904.21,139.59 901.08,134.14 894.00,134.65
             889.74,134.96 886.42,137.75 883.00,140.00
             881.79,137.27 877.73,131.13 882.16,129.17
             884.42,128.52 886.92,130.38 889.79,129.17
             891.56,128.05 892.79,125.92 894.37,124.73
             896.46,123.16 899.48,122.68 902.00,122.00
             902.00,122.00 899.00,106.00 899.00,106.00
             905.86,104.11 905.95,106.30 911.00,100.00
             911.00,100.00 918.00,100.00 918.00,100.00
             918.00,100.00 911.00,94.00 911.00,94.00
             913.04,82.55 908.28,87.72 909.00,79.00
             912.54,80.17 924.91,87.89 927.18,90.63 Z" />
</svg>
