<?xml version="1.0" encoding="UTF-8" standalone="no"?>
<!DOCTYPE svg PUBLIC "-//W3C//DTD SVG 20010904//EN"
              "http://www.w3.org/TR/2001/REC-SVG-20010904/DTD/svg10.dtd">

<svg xmlns="http://www.w3.org/2000/svg"
     width="17.0395in" height="8.72113in"
     viewBox="0 0 1227 628">
  <path id="Australia.New-Guinea"
        fill="none" stroke="black" stroke-width="1"
        d="M 1091.00,353.00
           C 1091.00,353.00 1089.00,365.00 1089.00,365.00
             1083.76,361.85 1085.46,354.84 1091.00,353.00 Z
           M 1118.00,380.00
           C 1120.38,376.03 1125.99,371.20 1131.00,371.85
             1131.00,371.85 1142.00,376.31 1142.00,376.31
             1148.63,378.73 1162.07,384.32 1165.98,390.20
             1169.12,394.94 1164.54,394.52 1170.88,402.96
             1174.73,408.10 1177.61,408.38 1182.00,414.00
             1177.32,413.06 1171.02,411.56 1167.37,408.36
             1164.01,405.42 1161.82,400.32 1157.00,399.23
             1151.76,398.04 1150.96,404.05 1146.90,405.23
             1142.39,406.55 1138.66,402.63 1135.00,401.27
             1131.85,400.10 1131.49,401.17 1128.00,399.00
             1129.21,398.06 1130.94,397.08 1131.37,395.48
             1132.95,389.59 1119.26,383.48 1115.00,381.96
             1115.00,381.96 1109.43,380.44 1109.43,380.44
             1107.47,379.38 1107.44,377.93 1107.00,376.00
             1107.00,376.00 1108.00,376.00 1108.00,376.00
             1108.00,376.00 1110.00,374.00 1110.00,374.00
             1110.00,374.00 1101.00,369.00 1101.00,369.00
             1113.62,364.28 1109.89,370.84 1118.00,380.00 Z
           M 1190.00,385.00
           C 1190.00,385.00 1181.00,376.00 1181.00,376.00
             1185.32,377.27 1190.92,379.64 1190.00,385.00 Z
           M 1097.00,379.00
           C 1093.04,379.62 1090.70,380.46 1088.00,377.00
             1088.00,377.00 1097.00,379.00 1097.00,379.00 Z
           M 1174.00,391.00
           C 1180.89,389.59 1181.85,388.85 1187.00,384.00
             1188.25,389.27 1181.24,396.40 1174.00,391.00 Z
           M 1200.00,396.00
           C 1200.00,396.00 1199.00,397.00 1199.00,397.00
             1195.85,394.00 1195.71,393.24 1195.00,389.00
             1195.00,389.00 1200.00,396.00 1200.00,396.00 Z
           M 1207.00,399.00
           C 1207.00,399.00 1202.00,395.00 1202.00,395.00
             1202.00,395.00 1207.00,399.00 1207.00,399.00 Z
           M 1215.00,404.00
           C 1215.00,404.00 1210.00,399.00 1210.00,399.00
             1210.00,399.00 1215.00,404.00 1215.00,404.00 Z
           M 1208.00,405.00
           C 1208.00,405.00 1204.00,401.00 1204.00,401.00
             1204.00,401.00 1208.00,405.00 1208.00,405.00 Z
           M 1219.00,409.00
           C 1219.00,409.00 1218.00,403.00 1218.00,403.00
             1218.00,403.00 1219.00,409.00 1219.00,409.00 Z
           M 1217.00,410.00
           C 1217.00,410.00 1213.00,407.00 1213.00,407.00
             1213.00,407.00 1217.00,410.00 1217.00,410.00 Z
           M 1222.00,414.00
           C 1222.00,414.00 1219.00,411.00 1219.00,411.00
             1219.00,411.00 1222.00,414.00 1222.00,414.00 Z" />
</svg>
