<?xml version="1.0" encoding="UTF-8" standalone="no"?>
<!DOCTYPE svg PUBLIC "-//W3C//DTD SVG 20010904//EN"
              "http://www.w3.org/TR/2001/REC-SVG-20010904/DTD/svg10.dtd">

<svg xmlns="http://www.w3.org/2000/svg"
     width="17.0395in" height="8.72113in"
     viewBox="0 0 1227 628">
  <path id="Africa.North-Africa"
        fill="none" stroke="black" stroke-width="1"
        d="M 544.00,340.40
           C 544.00,340.40 539.00,339.62 539.00,339.62
             539.00,339.62 524.00,342.52 524.00,342.52
             516.54,342.33 507.65,334.69 503.43,329.00
             500.76,325.41 501.46,323.98 497.96,319.00
             497.96,319.00 487.41,306.88 487.41,306.88
             486.20,304.44 487.09,302.69 486.89,300.58
             486.70,298.63 485.71,297.05 485.94,295.00
             486.29,291.77 490.55,287.21 490.53,281.00
             490.52,274.49 485.90,269.31 488.53,263.00
             489.94,259.65 501.67,240.86 504.30,238.33
             507.93,234.82 512.15,233.54 515.69,228.98
             518.69,225.12 517.82,222.26 519.92,218.04
             522.39,213.06 526.02,212.21 529.82,208.68
             531.33,207.27 533.62,204.08 535.32,203.40
             539.10,201.89 542.87,207.40 550.00,204.97
             550.00,204.97 561.00,199.55 561.00,199.55
             570.93,195.97 571.14,197.79 580.00,197.99
             592.29,198.26 590.69,193.95 599.00,197.00
             599.00,197.00 599.51,208.00 599.51,208.00
             600.13,210.43 602.21,212.26 601.52,214.91
             601.02,216.80 598.70,218.34 597.04,222.04
             592.81,231.51 595.84,232.26 595.63,239.00
             595.51,242.87 593.51,245.50 596.70,249.82
             599.81,254.03 609.32,259.72 614.72,259.83
             618.04,260.15 618.92,258.59 624.00,259.83
             629.42,260.85 635.12,264.94 640.00,267.72
             647.75,272.14 652.94,272.70 653.00,282.00
             653.00,282.00 653.00,292.00 653.00,292.00
             643.45,297.36 646.65,305.20 650.00,313.00
             650.00,313.00 628.00,327.49 628.00,327.49
             622.92,329.66 615.77,329.45 615.04,337.00
             614.62,341.26 620.30,347.86 622.00,353.00
             622.00,353.00 596.00,353.00 596.00,353.00
             594.43,341.78 587.87,342.29 579.00,343.00
             574.87,323.78 554.12,341.49 544.00,340.40 Z" />
</svg>
