<?xml version="1.0" encoding="UTF-8" standalone="no"?>
<!DOCTYPE svg PUBLIC "-//W3C//DTD SVG 20010904//EN"
              "http://www.w3.org/TR/2001/REC-SVG-20010904/DTD/svg10.dtd">

<svg xmlns="http://www.w3.org/2000/svg"
     width="17.0395in" height="8.72113in"
     viewBox="0 0 1227 628">
  <path id="Australia.Western-Australia"
        fill="none" stroke="black" stroke-width="1"
        d="M 1080.00,427.91
           C 1081.97,428.23 1084.30,429.93 1086.00,431.00
             1086.00,431.00 1073.00,481.00 1073.00,481.00
             1073.00,481.00 1089.00,482.00 1089.00,482.00
             1089.00,482.00 1112.00,483.09 1112.00,483.09
             1112.00,483.09 1123.00,484.00 1123.00,484.00
             1123.00,484.00 1105.00,535.00 1105.00,535.00
             1105.00,535.00 1103.00,535.00 1103.00,535.00
             1103.00,535.00 1102.00,534.00 1102.00,534.00
             1102.00,534.00 1102.00,520.00 1102.00,520.00
             1102.00,520.00 1097.00,523.00 1097.00,523.00
             1097.00,523.00 1102.00,513.00 1102.00,513.00
             1102.00,513.00 1091.00,521.00 1091.00,521.00
             1090.27,518.45 1089.57,516.31 1088.03,514.09
             1086.09,511.28 1082.39,508.20 1079.00,507.46
             1074.43,506.47 1059.64,509.65 1055.00,511.46
             1055.00,511.46 1046.00,515.37 1046.00,515.37
             1046.00,515.37 1032.00,517.52 1032.00,517.52
             1024.34,519.34 1016.93,525.81 1011.00,517.00
             1020.91,508.55 1016.03,504.23 1016.03,494.00
             1016.03,494.00 1017.41,479.00 1017.41,479.00
             1017.59,474.17 1016.42,470.81 1019.41,466.22
             1021.86,462.47 1036.36,456.86 1041.00,455.60
             1043.92,454.82 1046.12,455.00 1049.00,453.55
             1054.43,450.81 1056.71,446.28 1059.00,441.00
             1059.00,441.00 1064.00,443.00 1064.00,443.00
             1064.00,443.00 1064.00,438.00 1064.00,438.00
             1070.20,434.51 1073.66,426.89 1080.00,427.91 Z" />
</svg>
