<?xml version="1.0" encoding="UTF-8" standalone="no"?>
<!DOCTYPE svg PUBLIC "-//W3C//DTD SVG 20010904//EN"
              "http://www.w3.org/TR/2001/REC-SVG-20010904/DTD/svg10.dtd">

<svg xmlns="http://www.w3.org/2000/svg"
     width="17.0395in" height="8.72113in"
     viewBox="0 0 1227 628">
  <path id="Australia.Indonesia"
        fill="none" stroke="black" stroke-width="1"
        d="M 1058.37,288.00
           C 1058.32,291.11 1056.07,293.52 1058.37,296.90
             1062.14,301.98 1065.68,297.77 1068.00,305.00
             1062.34,303.00 1060.34,303.80 1058.17,302.74
             1056.60,301.98 1055.14,300.38 1053.94,299.13
             1047.66,292.57 1049.65,288.00 1052.00,280.00
             1055.69,281.41 1058.13,283.74 1058.37,288.00 Z
           M 1058.00,309.00
           C 1058.00,309.00 1054.00,304.00 1054.00,304.00
             1054.00,304.00 1058.00,309.00 1058.00,309.00 Z
           M 1077.00,314.00
           C 1072.63,312.68 1072.19,311.94 1070.00,308.00
             1074.24,309.52 1074.65,310.22 1077.00,314.00 Z
           M 1064.00,311.00
           C 1064.00,311.00 1062.00,316.00 1062.00,316.00
             1059.14,312.69 1059.94,311.71 1064.00,311.00 Z
           M 1042.00,325.00
           C 1042.00,325.00 1050.00,314.00 1050.00,314.00
             1051.58,319.50 1046.70,323.36 1042.00,325.00 Z
           M 1071.00,319.00
           C 1071.00,319.00 1069.00,314.00 1069.00,314.00
             1071.25,315.74 1071.49,316.17 1071.00,319.00 Z
           M 1065.00,323.00
           C 1065.00,323.00 1064.00,317.00 1064.00,317.00
             1066.27,319.73 1066.05,319.63 1065.00,323.00 Z
           M 1081.00,334.00
           C 1081.00,334.00 1077.00,332.00 1077.00,332.00
             1077.00,332.00 1076.00,333.00 1076.00,333.00
             1076.00,333.00 1078.00,337.00 1078.00,337.00
             1078.00,337.00 1073.00,338.00 1073.00,338.00
             1069.58,331.45 1070.08,329.63 1063.00,330.00
             1067.74,322.67 1072.20,329.88 1076.00,319.00
             1079.20,323.86 1080.52,328.24 1081.00,334.00 Z
           M 1024.61,348.62
           C 1026.50,346.75 1027.22,344.74 1029.39,343.07
             1029.39,343.07 1034.91,339.59 1034.91,339.59
             1037.27,337.70 1039.51,333.90 1043.01,335.17
             1051.91,338.40 1044.99,345.67 1044.76,349.00
             1044.56,352.09 1047.51,356.29 1049.00,359.00
             1043.63,363.40 1043.20,366.82 1040.31,373.00
             1039.27,375.20 1038.17,378.43 1035.78,379.48
             1033.47,380.49 1030.56,379.04 1028.00,378.80
             1024.43,378.45 1018.48,378.66 1015.39,376.71
             1012.18,374.69 1009.43,364.70 1009.52,361.00
             1009.57,358.78 1010.15,357.92 1011.00,356.00
             1011.00,356.00 1016.00,358.00 1016.00,358.00
             1019.57,350.36 1020.28,352.90 1024.61,348.62 Z
           M 974.02,354.11
           C 979.29,358.31 984.40,359.52 984.00,367.00
             987.75,369.13 994.15,375.87 995.28,380.09
             996.66,385.26 993.33,389.79 989.03,388.77
             985.75,387.99 979.77,380.85 977.99,378.00
             977.99,378.00 974.10,370.00 974.10,370.00
             974.10,370.00 963.37,354.00 963.37,354.00
             958.57,347.38 955.98,347.74 952.00,339.00
             965.74,341.16 966.03,347.76 974.02,354.11 Z
           M 1050.10,378.00
           C 1050.10,378.00 1052.79,370.00 1052.79,370.00
             1053.59,365.88 1053.42,361.27 1058.05,359.15
             1060.70,357.88 1064.14,359.19 1067.00,359.15
             1070.14,359.21 1073.02,357.83 1076.00,357.00
             1075.40,358.24 1074.90,359.53 1074.01,360.60
             1069.16,366.46 1064.74,359.30 1059.13,362.33
             1055.76,364.14 1054.46,369.21 1063.96,368.49
             1066.09,368.33 1066.05,368.35 1068.00,369.00
             1059.98,373.62 1064.75,374.84 1065.00,385.00
             1060.20,382.23 1060.04,380.97 1058.00,376.00
             1053.98,381.32 1055.15,381.80 1056.00,388.00
             1056.00,388.00 1052.00,389.00 1052.00,389.00
             1052.00,389.00 1050.10,378.00 1050.10,378.00 Z
           M 1010.00,394.75
           C 1013.55,395.60 1016.06,394.14 1019.00,394.75
             1021.62,395.00 1031.70,400.18 1034.00,402.00
             1026.48,403.53 1017.36,400.37 1010.00,398.87
             1003.36,397.52 1007.54,400.51 994.00,396.00
             994.00,396.00 994.00,394.00 994.00,394.00
             1002.34,390.16 1003.32,393.62 1010.00,394.75 Z
           M 1064.00,404.00
           C 1059.20,404.37 1057.73,405.57 1054.00,402.00
             1058.33,401.13 1060.34,401.52 1064.00,404.00 Z
           M 1048.00,404.00
           C 1044.00,404.49 1042.59,405.21 1039.00,403.00
             1042.98,401.88 1044.56,401.47 1048.00,404.00 Z
           M 1083.00,404.00
           C 1083.00,404.00 1067.00,410.00 1067.00,410.00
             1070.83,403.53 1075.68,399.75 1083.00,404.00 Z
           M 1055.00,410.00
           C 1055.00,410.00 1050.00,407.00 1050.00,407.00
             1050.00,407.00 1055.00,410.00 1055.00,410.00 Z" />
</svg>
