<?xml version="1.0" encoding="UTF-8" standalone="no"?>
<!DOCTYPE svg PUBLIC "-//W3C//DTD SVG 20010904//EN"
              "http://www.w3.org/TR/2001/REC-SVG-20010904/DTD/svg10.dtd">

<svg xmlns="http://www.w3.org/2000/svg"
     width="17.0395in" height="8.72113in"
     viewBox="0 0 1227 628">
  <path id="Asia.Middle-East"
        fill="none" stroke="black" stroke-width="1"
        d="M 668.00,177.00
           C 668.00,177.00 659.00,180.00 659.00,180.00
             659.00,180.00 659.00,175.00 659.00,175.00
             663.52,174.04 664.10,174.69 668.00,177.00 Z
           M 665.96,181.57
           C 665.96,181.57 671.28,178.31 671.28,178.31
             671.28,178.31 686.00,174.14 686.00,174.14
             698.24,173.39 706.16,186.02 716.00,175.00
             725.37,178.90 724.33,183.33 732.00,186.42
             737.07,188.69 738.89,184.47 742.67,186.42
             744.89,187.34 746.24,190.54 748.38,192.61
             750.30,194.49 756.39,197.80 759.00,198.44
             764.64,199.83 765.99,195.11 773.00,192.47
             778.79,190.29 789.98,193.84 794.60,197.81
             799.32,201.86 795.83,205.98 795.89,210.00
             795.97,214.66 798.64,219.03 802.11,222.00
             802.11,222.00 802.11,230.00 802.11,230.00
             802.11,230.00 807.97,239.00 807.97,239.00
             807.97,239.00 806.00,249.00 806.00,249.00
             801.64,250.02 795.21,249.87 791.17,247.69
             788.37,246.18 786.75,243.28 783.99,242.52
             781.38,241.46 779.10,242.93 776.00,242.52
             773.26,242.49 768.40,240.17 766.10,238.65
             761.25,235.44 758.17,224.35 752.27,227.95
             750.37,229.11 750.14,231.05 750.79,233.00
             750.79,233.00 755.04,240.00 755.04,240.00
             757.34,244.11 757.80,251.11 763.00,247.00
             763.00,247.00 765.00,247.00 765.00,247.00
             765.00,247.00 765.00,255.00 765.00,255.00
             767.51,253.14 769.85,255.10 773.00,254.07
             777.16,252.70 780.46,248.36 783.00,245.00
             784.70,247.99 784.53,250.43 786.46,252.61
             789.38,255.90 799.72,259.48 797.84,265.01
             797.29,266.62 794.73,269.45 793.63,271.00
             790.25,275.76 788.21,280.73 782.99,284.11
             782.99,284.11 774.04,288.00 774.04,288.00
             774.04,288.00 765.96,294.87 765.96,294.87
             762.98,296.85 758.40,298.36 755.00,299.86
             750.86,301.69 740.81,307.81 736.64,304.36
             732.08,300.59 733.76,292.04 729.79,286.00
             729.79,286.00 724.38,278.09 724.38,278.09
             722.33,275.37 720.39,274.10 718.53,270.96
             715.63,266.06 716.83,263.70 712.83,258.00
             712.83,258.00 700.44,241.00 700.44,241.00
             700.44,241.00 697.36,233.00 697.36,233.00
             696.36,230.81 694.17,227.29 693.75,225.09
             693.19,222.17 700.45,204.53 697.69,199.44
             695.80,195.75 691.03,199.14 688.00,199.44
             683.93,200.12 682.28,197.90 679.00,197.83
             676.07,197.46 674.23,199.25 670.02,197.83
             662.12,195.64 665.47,190.50 659.00,185.00
             659.00,185.00 659.00,183.00 659.00,183.00
             659.00,183.00 665.96,181.57 665.96,181.57 Z" />
</svg>
