<?xml version="1.0" encoding="UTF-8" standalone="no"?>
<!DOCTYPE svg PUBLIC "-//W3C//DTD SVG 20010904//EN"
              "http://www.w3.org/TR/2001/REC-SVG-20010904/DTD/svg10.dtd">

<svg xmlns="http://www.w3.org/2000/svg"
     width="17.0395in" height="8.72113in"
     viewBox="0 0 1227 628">
  <path id="Asia.India"
        fill="none" stroke="black" stroke-width="1"
        d="M 837.00,196.00
           C 849.75,192.32 849.41,197.85 859.57,202.52
             864.98,205.00 866.47,202.14 871.00,209.00
             864.66,222.47 874.86,224.48 885.00,227.41
             888.95,228.55 891.06,231.04 895.00,232.43
             898.59,233.69 900.66,233.08 903.00,233.64
             903.00,233.64 916.00,238.79 916.00,238.79
             920.37,233.25 922.03,238.95 926.24,238.79
             929.27,238.31 930.43,234.59 934.10,233.01
             939.07,230.87 943.54,234.21 948.00,236.00
             948.00,236.00 940.59,244.10 940.59,244.10
             940.59,244.10 935.84,260.00 935.84,260.00
             935.84,260.00 935.84,265.00 935.84,265.00
             935.84,265.00 931.00,267.00 931.00,267.00
             929.92,265.13 929.14,263.31 926.89,262.55
             924.31,261.68 913.59,264.78 911.86,266.99
             910.65,268.53 910.95,270.20 911.00,272.00
             903.36,275.49 899.42,281.82 893.63,287.49
             891.26,289.80 887.50,291.81 886.41,295.01
             885.38,297.57 886.68,299.87 886.41,303.00
             886.41,303.00 885.32,309.00 885.32,309.00
             884.41,314.52 884.18,320.85 878.70,324.30
             872.32,328.31 870.42,316.46 868.24,312.00
             868.24,312.00 854.91,282.00 854.91,282.00
             851.59,270.72 855.01,272.56 852.00,263.00
             852.00,263.00 850.00,263.00 850.00,263.00
             850.00,263.00 849.00,264.00 849.00,264.00
             848.60,271.28 841.83,269.72 838.00,263.00
             838.00,263.00 842.00,262.00 842.00,262.00
             842.00,262.00 841.00,259.00 841.00,259.00
             832.35,260.09 830.96,252.11 824.96,249.56
             821.63,248.14 811.36,251.51 807.90,248.02
             805.08,245.36 809.96,242.50 807.90,238.00
             807.90,238.00 803.18,231.00 803.18,231.00
             801.60,227.75 802.64,225.81 801.80,223.17
             799.41,215.66 794.46,216.75 798.00,203.00
             801.67,202.97 803.77,202.77 806.79,200.36
             809.18,198.46 810.38,195.75 813.10,194.78
             816.47,193.58 819.29,195.87 822.00,195.98
             826.13,196.15 828.68,192.89 831.00,190.00
             835.09,191.50 835.30,192.05 837.00,196.00 Z
           M 889.00,336.00
           C 886.83,329.44 886.81,327.69 888.00,321.00
             892.99,325.49 898.79,333.35 889.00,336.00 Z" />
</svg>
