<?xml version="1.0" encoding="UTF-8" standalone="no"?>
<!DOCTYPE svg PUBLIC "-//W3C//DTD SVG 20010904//EN"
              "http://www.w3.org/TR/2001/REC-SVG-20010904/DTD/svg10.dtd">

<svg xmlns="http://www.w3.org/2000/svg"
     width="17.0395in" height="8.72113in"
     viewBox="0 0 1227 628">
  <path id="Australia.Eastern-Australia"
        fill="none" stroke="black" stroke-width="1"
        d="M 1146.00,415.00
           C 1146.00,415.00 1148.64,423.00 1148.64,423.00
             1150.74,427.60 1153.21,428.33 1154.75,434.00
             1157.03,442.44 1153.92,443.85 1155.89,448.00
             1155.89,448.00 1161.65,456.00 1161.65,456.00
             1161.65,456.00 1168.13,469.00 1168.13,469.00
             1170.02,472.02 1173.64,475.68 1174.40,479.00
             1175.00,481.61 1173.36,492.24 1172.39,494.96
             1170.55,500.15 1164.75,508.83 1160.58,512.37
             1160.58,512.37 1155.18,516.39 1155.18,516.39
             1155.18,516.39 1149.68,522.83 1149.68,522.83
             1144.11,528.84 1143.41,528.38 1138.00,536.00
             1129.69,534.70 1128.83,536.75 1122.00,541.00
             1113.65,533.12 1117.51,542.06 1105.00,536.00
             1105.00,536.00 1124.00,483.00 1124.00,483.00
             1124.00,483.00 1089.00,481.00 1089.00,481.00
             1089.00,481.00 1074.00,480.00 1074.00,480.00
             1074.00,480.00 1087.00,432.00 1087.00,432.00
             1091.64,431.03 1089.44,427.58 1093.68,423.43
             1095.67,421.48 1097.54,421.09 1100.00,420.08
             1108.61,416.56 1110.39,416.61 1119.00,421.00
             1117.47,423.74 1114.40,427.76 1115.11,430.96
             1115.96,434.78 1122.77,439.12 1126.00,441.15
             1127.87,442.33 1129.79,444.08 1132.08,442.98
             1133.25,442.42 1134.51,440.94 1135.33,439.95
             1141.30,432.81 1139.03,431.68 1140.90,424.00
             1141.72,420.64 1142.74,418.17 1144.00,415.00
             1144.00,415.00 1146.00,415.00 1146.00,415.00 Z
           M 1124.00,551.00
           C 1120.50,556.85 1116.21,560.98 1109.00,560.00
             1109.00,560.00 1111.00,549.00 1111.00,549.00
             1111.00,549.00 1124.00,551.00 1124.00,551.00 Z" />
</svg>
