<?xml version="1.0" encoding="UTF-8" standalone="no"?>
<!DOCTYPE svg PUBLIC "-//W3C//DTD SVG 20010904//EN"
              "http://www.w3.org/TR/2001/REC-SVG-20010904/DTD/svg10.dtd">

<svg xmlns="http://www.w3.org/2000/svg"
     width="17.0395in" height="8.72113in"
     viewBox="0 0 1227 628">
  <path id="Asia.Afghanistan"
        fill="none" stroke="black" stroke-width="1"
        d="M 804.00,116.31
           C 808.24,116.97 809.14,119.72 819.00,121.56
             825.14,122.53 825.84,119.85 829.96,121.56
             832.18,122.65 834.16,124.95 836.17,126.34
             838.78,128.16 841.04,128.53 843.40,130.63
             843.40,130.63 850.26,138.71 850.26,138.71
             854.03,142.32 864.40,148.04 864.84,153.96
             865.13,157.85 860.18,159.02 859.71,161.53
             859.17,164.49 864.47,167.38 861.13,172.96
             856.57,180.57 847.64,178.88 840.00,185.00
             844.38,188.02 845.61,188.80 847.00,194.00
             847.00,194.00 837.00,195.06 837.00,195.06
             832.06,185.30 829.25,194.90 823.00,195.06
             818.88,195.73 816.44,192.16 812.10,195.06
             808.45,196.98 806.36,202.50 801.10,202.18
             797.81,201.98 797.24,198.82 792.96,196.21
             789.34,194.01 780.17,190.30 776.00,190.97
             773.93,191.30 770.09,193.12 768.00,194.00
             768.00,194.00 761.00,180.00 761.00,180.00
             761.00,180.00 768.00,179.00 768.00,179.00
             764.58,175.04 764.22,172.72 759.00,174.00
             755.37,169.87 747.92,167.15 750.28,162.22
             751.20,160.31 753.06,159.62 755.02,159.16
             755.02,159.16 760.00,159.16 760.00,159.16
             757.76,156.34 755.44,153.22 752.00,152.10
             748.21,150.86 745.78,153.01 743.04,152.88
             740.02,152.74 732.64,146.62 731.82,143.83
             730.93,141.86 731.55,139.93 731.82,138.00
             731.82,138.00 736.00,139.00 736.00,139.00
             741.38,126.06 749.89,133.10 759.00,134.75
             762.30,135.35 764.03,134.31 767.00,134.25
             773.78,134.92 771.63,137.73 781.00,134.25
             781.00,134.25 776.00,130.00 776.00,130.00
             776.00,130.00 778.00,122.00 778.00,122.00
             782.37,120.90 801.07,115.86 804.00,116.31 Z" />
</svg>
