<?xml version="1.0" encoding="UTF-8" standalone="no"?>
<!DOCTYPE svg PUBLIC "-//W3C//DTD SVG 20010904//EN"
              "http://www.w3.org/TR/2001/REC-SVG-20010904/DTD/svg10.dtd">

<svg xmlns="http://www.w3.org/2000/svg"
     width="17.0395in" height="8.72113in"
     viewBox="0 0 1227 628">
  <path id="Europe.Scandinavia"
        fill="none" stroke="black" stroke-width="1"
        d="M 620.49,102.32
           C 618.29,105.02 614.82,115.89 608.13,112.87
             604.09,111.04 603.67,102.98 598.91,101.09
             596.23,100.03 593.83,102.15 591.00,102.56
             584.54,103.47 582.19,98.26 581.80,92.84
             581.19,84.25 589.89,86.15 600.96,77.25
             600.96,77.25 616.37,60.99 616.37,60.99
             619.04,58.99 622.87,58.27 626.00,57.09
             638.02,52.53 633.95,53.69 646.00,53.55
             651.61,53.49 653.80,52.91 659.00,56.00
             657.12,56.94 655.08,57.68 654.60,60.06
             654.27,61.68 655.55,64.02 655.90,65.83
             657.29,73.07 657.89,79.10 664.00,84.00
             662.75,86.40 661.65,88.55 659.53,90.35
             654.84,94.35 637.77,97.71 634.78,89.79
             633.13,85.42 637.83,81.49 639.60,78.00
             640.48,76.27 641.39,73.25 638.77,72.45
             635.64,71.50 631.97,76.93 629.91,78.79
             626.26,82.10 615.98,86.29 622.27,92.59
             623.39,93.71 624.65,94.26 626.00,95.00
             624.18,99.85 623.33,98.84 620.49,102.32 Z" />
</svg>
