<?xml version="1.0" encoding="UTF-8" standalone="no"?>
<!DOCTYPE svg PUBLIC "-//W3C//DTD SVG 20010904//EN"
              "http://www.w3.org/TR/2001/REC-SVG-20010904/DTD/svg10.dtd">

<svg xmlns="http://www.w3.org/2000/svg"
     width="17.0395in" height="8.72113in"
     viewBox="0 0 1227 628">
  <path id="North-America.Central-America"
        fill="none" stroke="black" stroke-width="1"
        d="M 104.00,216.96
           C 108.76,218.62 111.56,221.38 117.00,221.90
             125.73,222.73 127.96,218.77 132.95,220.86
             137.94,222.95 137.41,228.31 141.13,229.91
             144.24,231.25 147.05,227.89 150.78,230.61
             156.10,234.50 152.28,241.28 162.00,246.00
             162.00,246.00 157.69,260.00 157.69,260.00
             157.43,262.43 158.03,264.67 158.63,267.00
             160.98,276.18 165.70,282.58 176.00,279.48
             185.38,276.66 184.95,270.62 188.41,268.14
             191.77,265.73 196.25,266.12 200.00,267.00
             200.00,267.00 190.00,291.00 190.00,291.00
             198.50,293.06 205.49,289.31 209.25,292.90
             211.28,294.85 210.31,298.55 209.92,301.00
             208.97,306.95 206.99,312.70 210.80,317.96
             218.48,328.55 224.38,317.17 231.81,322.89
             235.62,325.82 233.22,327.74 230.00,329.00
             230.00,329.00 232.00,325.00 232.00,325.00
             226.70,323.07 226.30,323.07 221.00,325.00
             221.00,325.00 222.00,328.00 222.00,328.00
             215.26,328.81 204.92,322.62 200.76,317.41
             200.76,317.41 193.00,302.00 193.00,302.00
             186.92,303.42 180.95,301.69 176.17,297.61
             173.46,295.30 171.48,291.99 168.00,290.56
             163.70,288.79 161.22,291.80 157.00,291.43
             153.19,291.09 134.45,281.85 131.00,279.37
             128.63,277.66 125.57,274.96 124.86,272.00
             124.22,269.02 126.30,266.64 124.86,262.00
             122.87,255.81 118.61,252.67 115.65,248.09
             115.65,248.09 108.41,234.00 108.41,234.00
             106.23,229.29 106.52,221.41 102.05,221.34
             97.53,221.26 99.21,227.64 100.07,230.00
             100.07,230.00 104.38,240.00 104.38,240.00
             107.18,249.10 105.00,246.37 110.00,258.00
             101.90,253.98 103.31,249.78 101.72,246.04
             100.28,242.68 97.33,241.77 96.71,237.96
             96.71,237.96 96.71,233.00 96.71,233.00
             95.27,225.01 92.18,229.89 94.00,216.00
             97.54,216.00 100.59,215.78 104.00,216.96 Z
           M 235.00,261.47
           C 235.00,261.47 244.00,266.60 244.00,266.60
             248.06,268.77 248.71,268.34 252.00,272.00
             252.00,272.00 235.00,272.00 235.00,272.00
             235.00,272.00 235.00,271.00 235.00,271.00
             235.00,271.00 237.00,269.00 237.00,269.00
             237.00,269.00 222.00,261.78 222.00,261.78
             222.00,261.78 211.00,264.00 211.00,264.00
             215.72,256.67 228.10,258.51 235.00,261.47 Z
           M 274.00,279.00
           C 274.00,279.00 257.00,280.64 257.00,280.64
             257.00,280.64 248.00,279.00 248.00,279.00
             248.00,279.00 258.00,278.00 258.00,278.00
             258.00,278.00 256.00,274.00 256.00,274.00
             263.56,274.00 268.32,273.05 274.00,279.00 Z
           M 241.00,282.00
           C 237.20,281.90 235.31,282.31 233.00,279.00
             237.10,279.24 237.92,279.16 241.00,282.00 Z
           M 286.00,281.00
           C 282.20,281.88 281.25,282.35 278.00,280.00
             281.79,279.02 282.66,278.85 286.00,281.00 Z" />
</svg>
