<?xml version="1.0" encoding="UTF-8" standalone="no"?>
<!DOCTYPE svg PUBLIC "-//W3C//DTD SVG 20010904//EN"
              "http://www.w3.org/TR/2001/REC-SVG-20010904/DTD/svg10.dtd">

<svg xmlns="http://www.w3.org/2000/svg"
     width="17.0395in" height="8.72113in"
     viewBox="0 0 1227 628">
  <path id="North-America.Ontario"
        fill="none" stroke="black" stroke-width="1"
        d="M 211.34,107.00
           C 215.73,100.55 217.64,96.16 226.00,96.00
             226.00,96.00 246.00,96.00 246.00,96.00
             246.00,96.00 244.00,101.00 244.00,101.00
             244.00,101.00 251.09,107.84 251.09,107.84
             251.09,107.84 274.00,117.00 274.00,117.00
             274.00,117.00 271.30,125.00 271.30,125.00
             270.49,130.03 273.88,131.10 272.52,136.00
             271.38,140.10 265.25,147.83 267.13,151.79
             268.56,154.80 276.78,157.88 280.00,160.00
             280.00,160.00 273.00,162.66 273.00,162.66
             273.00,162.66 265.00,164.57 265.00,164.57
             265.00,164.57 255.00,171.00 255.00,171.00
             250.83,169.93 249.96,170.68 246.00,172.00
             246.00,172.00 254.00,162.00 254.00,162.00
             254.00,162.00 259.00,163.00 259.00,163.00
             262.22,152.95 251.48,156.85 248.62,153.64
             246.52,151.30 247.55,146.45 242.90,144.42
             239.21,142.80 232.40,146.28 228.00,146.21
             221.60,146.12 216.83,142.27 212.83,141.98
             212.83,141.98 192.00,141.98 192.00,141.98
             197.27,129.76 203.85,118.00 211.34,107.00 Z" />
</svg>
