<?xml version="1.0" encoding="UTF-8" standalone="no"?>
<!DOCTYPE svg PUBLIC "-//W3C//DTD SVG 20010904//EN"
              "http://www.w3.org/TR/2001/REC-SVG-20010904/DTD/svg10.dtd">

<svg xmlns="http://www.w3.org/2000/svg"
     width="17.0395in" height="8.72113in"
     viewBox="0 0 1227 628">
  <path id="Africa.Egypt"
        fill="none" stroke="black" stroke-width="1"
        d="M 626.00,259.31
           C 619.87,257.34 618.91,259.50 614.00,259.31
             608.79,258.60 601.03,254.40 597.70,250.47
             594.04,246.17 596.11,242.70 596.34,239.00
             596.34,239.00 595.51,229.00 595.51,229.00
             595.70,224.60 599.77,216.10 604.29,214.77
             605.83,214.16 607.47,214.56 609.00,214.77
             618.79,216.98 616.65,219.19 621.18,222.07
             622.46,222.88 629.50,225.21 631.00,225.37
             639.52,226.30 634.34,215.06 643.02,215.16
             647.93,215.22 652.56,219.33 659.00,220.96
             663.03,221.97 671.01,223.57 675.00,223.17
             675.00,223.17 681.00,222.35 681.00,222.35
             685.47,222.40 684.17,223.65 692.00,223.00
             695.07,230.14 695.44,229.16 695.00,237.00
             695.00,237.00 687.00,229.00 687.00,229.00
             687.00,229.00 701.00,259.00 701.00,259.00
             701.00,259.00 694.00,263.03 694.00,263.03
             694.00,263.03 685.00,263.03 685.00,263.03
             685.00,263.03 656.00,263.03 656.00,263.03
             656.00,263.03 656.00,272.00 656.00,272.00
             656.00,272.00 653.00,274.00 653.00,274.00
             653.00,274.00 626.00,259.31 626.00,259.31 Z" />
</svg>
