<?xml version="1.0" encoding="UTF-8" standalone="no"?>
<!DOCTYPE svg PUBLIC "-//W3C//DTD SVG 20010904//EN"
              "http://www.w3.org/TR/2001/REC-SVG-20010904/DTD/svg10.dtd">

<svg xmlns="http://www.w3.org/2000/svg"
     width="17.0395in" height="8.72113in"
     viewBox="0 0 1227 628">
  <path id="Europe.Northern-Europe"
        fill="none" stroke="black" stroke-width="1"
        d="M 591.68,119.86
           C 593.61,114.98 587.55,110.42 596.80,107.00
             596.87,108.73 596.34,112.54 596.80,114.00
             597.96,121.61 603.13,119.17 608.00,119.80
             610.28,120.09 611.42,120.94 614.00,120.71
             614.00,120.71 622.00,118.62 622.00,118.62
             622.00,118.62 629.00,118.62 629.00,118.62
             633.92,117.64 632.08,115.57 640.00,116.00
             640.00,116.00 643.92,124.04 643.92,124.04
             643.92,124.04 647.00,136.00 647.00,136.00
             638.33,143.09 644.00,143.50 640.41,149.96
             636.27,157.40 626.36,156.46 620.00,153.00
             620.00,153.00 622.22,148.43 622.22,148.43
             623.58,144.44 619.37,142.41 616.00,142.49
             610.84,142.61 605.74,148.19 599.00,149.61
             593.90,150.68 594.73,147.37 587.00,149.00
             587.00,149.00 589.00,143.00 589.00,143.00
             581.69,139.85 575.87,140.45 571.00,133.00
             571.00,133.00 583.91,123.83 583.91,123.83
             583.91,123.83 587.00,125.00 587.00,125.00
             588.39,123.20 590.93,121.77 591.68,119.86 Z" />
</svg>
