<?xml version="1.0" encoding="UTF-8" standalone="no"?>
<!DOCTYPE svg PUBLIC "-//W3C//DTD SVG 20010904//EN"
              "http://www.w3.org/TR/2001/REC-SVG-20010904/DTD/svg10.dtd">

<svg xmlns="http://www.w3.org/2000/svg"
     width="17.0395in" height="8.72113in"
     viewBox="0 0 1227 628">
  <path id="North-America.Northwest-Territory"
        fill="none" stroke="black" stroke-width="1"
        d="M 225.00,39.34
           C 239.47,40.75 236.98,49.33 250.00,44.00
             250.00,44.00 251.00,49.00 251.00,49.00
             251.00,49.00 261.00,44.00 261.00,44.00
             261.00,44.00 257.00,52.00 257.00,52.00
             257.00,52.00 263.00,55.00 263.00,55.00
             253.39,62.61 248.99,58.39 244.00,58.68
             240.55,58.87 237.40,61.05 234.00,61.59
             228.15,62.50 220.54,59.61 216.00,56.00
             221.71,56.00 224.78,56.75 230.00,54.00
             230.00,54.00 218.00,52.00 218.00,52.00
             218.00,52.00 224.00,50.00 224.00,50.00
             224.00,50.00 219.00,47.00 219.00,47.00
             210.37,49.99 207.00,53.69 202.00,48.00
             209.11,44.92 217.10,38.56 225.00,39.34 Z
           M 289.00,41.00
           C 286.94,45.47 282.20,51.43 276.43,49.09
             274.74,48.40 272.40,46.24 271.00,45.00
             271.00,45.00 289.00,41.00 289.00,41.00 Z
           M 306.00,43.00
           C 301.96,44.88 295.42,46.47 291.00,46.00
             295.00,41.58 300.69,39.58 306.00,43.00 Z
           M 292.00,51.00
           C 292.00,51.00 292.00,60.00 292.00,60.00
             292.00,60.00 298.00,60.00 298.00,60.00
             298.00,60.00 295.00,66.00 295.00,66.00
             295.00,66.00 296.00,67.00 296.00,67.00
             298.59,65.88 300.65,65.00 303.00,63.37
             309.63,58.77 309.30,56.89 318.00,59.00
             313.57,71.25 305.88,69.02 298.00,70.21
             294.24,70.78 292.51,72.44 289.00,72.23
             289.00,72.23 283.00,72.23 283.00,72.23
             283.00,72.23 287.00,77.00 287.00,77.00
             280.69,78.83 276.57,80.54 270.00,79.00
             270.00,79.00 269.00,80.00 269.00,80.00
             269.00,80.00 270.00,83.00 270.00,83.00
             270.00,83.00 258.00,88.46 258.00,88.46
             255.20,90.08 249.73,94.01 247.00,94.93
             244.99,95.37 239.47,95.00 237.00,94.93
             237.00,94.93 146.00,94.93 146.00,94.93
             136.14,95.00 107.78,94.11 100.00,96.00
             100.00,96.00 98.00,92.00 98.00,92.00
             98.00,92.00 126.00,70.00 126.00,70.00
             128.79,67.78 137.47,60.53 140.00,59.32
             144.65,57.10 147.07,59.68 154.00,59.96
             163.06,60.33 167.48,57.15 175.00,56.37
             188.44,54.98 184.21,56.71 191.00,57.22
             191.00,57.22 198.00,57.22 198.00,57.22
             201.55,57.28 212.62,60.54 216.00,62.00
             216.00,62.00 215.00,62.00 215.00,62.00
             215.00,62.00 213.00,64.00 213.00,64.00
             225.20,66.97 226.37,60.21 231.00,70.00
             235.10,65.56 239.50,62.14 246.00,62.70
             246.00,62.70 255.00,64.61 255.00,64.61
             261.63,65.12 260.99,62.07 269.00,68.00
             276.24,60.29 285.74,63.13 279.00,55.00
             283.67,52.34 286.49,50.02 292.00,51.00 Z
           M 277.00,59.00
           C 272.52,60.87 270.89,62.53 267.00,59.00
             271.27,57.41 272.93,56.42 277.00,59.00 Z" />
</svg>
