<?xml version="1.0" encoding="UTF-8" standalone="no"?>
<!DOCTYPE svg PUBLIC "-//W3C//DTD SVG 20010904//EN"
              "http://www.w3.org/TR/2001/REC-SVG-20010904/DTD/svg10.dtd">

<svg xmlns="http://www.w3.org/2000/svg"
     width="5.83333in" height="4.86111in"
     viewBox="0 0 420 350">
  <path id="Selection"
        fill="none" stroke="black" stroke-width="1"
        d="M 326.00,74.31
           C 326.00,74.31 380.00,46.69 380.00,46.69
             380.00,46.69 400.00,36.24 400.00,36.24
             400.00,36.24 408.17,31.60 408.17,31.60
             410.83,30.86 413.26,31.88 414.69,34.23
             416.72,37.56 420.26,54.11 418.46,57.90
             416.31,62.41 410.26,64.18 406.00,65.92
             406.00,65.92 390.00,74.10 390.00,74.10
             390.00,74.10 335.00,102.74 335.00,102.74
             327.29,106.72 311.62,113.37 306.00,119.00
             311.68,116.84 318.76,111.50 324.00,111.47
             336.07,111.40 337.71,120.76 331.18,127.37
             326.90,131.69 308.11,135.94 303.60,142.18
             300.51,146.46 303.14,153.53 301.28,157.76
             299.88,160.94 297.56,159.98 294.96,164.09
             293.06,167.10 291.11,175.20 290.00,179.00
             290.00,179.00 297.00,178.00 297.00,178.00
             294.70,181.37 292.41,180.88 290.65,183.28
             286.27,189.29 298.71,192.19 302.00,194.00
             303.68,186.67 308.02,189.47 308.43,192.13
             308.79,194.50 307.09,197.02 306.00,199.00
             313.33,203.90 304.51,210.23 303.52,216.00
             302.83,220.00 305.04,220.62 304.81,227.58
             304.81,227.58 303.46,239.00 303.46,239.00
             303.46,239.00 302.23,254.00 302.23,254.00
             302.23,254.00 299.90,259.00 299.90,259.00
             299.90,259.00 298.09,265.00 298.09,265.00
             296.65,269.21 291.79,278.76 288.81,281.91
             280.37,290.85 268.76,293.14 257.00,292.15
             253.83,291.88 252.03,291.94 249.00,290.64
             243.15,288.11 238.57,282.70 236.00,277.00
             229.18,278.81 222.48,278.85 218.20,285.02
             213.71,291.48 211.66,304.81 201.99,311.01
             199.83,312.39 187.46,317.91 185.00,318.25
             180.96,319.40 168.85,319.38 165.00,318.25
             161.82,316.93 155.98,313.90 153.68,311.49
             153.68,311.49 150.53,307.67 150.53,307.67
             145.59,302.91 148.23,305.78 144.21,300.45
             140.83,295.97 139.11,296.54 140.00,290.00
             134.44,286.86 137.19,285.78 135.87,281.70
             135.08,279.29 132.63,278.39 131.79,275.88
             130.87,273.12 132.67,271.10 133.00,267.00
             122.52,271.85 111.20,272.61 100.00,274.80
             100.00,274.80 88.00,277.68 88.00,277.68
             88.00,277.68 80.00,278.46 80.00,278.46
             80.00,278.46 41.00,285.57 41.00,285.57
             41.00,285.57 33.00,286.30 33.00,286.30
             21.01,288.03 23.18,291.01 10.00,288.61
             7.37,288.13 3.63,288.11 2.02,285.69
             0.70,283.70 0.96,278.45 1.00,276.00
             1.16,267.27 4.74,266.77 11.00,272.00
             11.00,272.00 14.14,268.07 14.14,268.07
             14.14,268.07 35.00,263.46 35.00,263.46
             35.00,263.46 49.87,257.16 49.87,257.16
             49.87,257.16 57.05,250.07 57.05,250.07
             57.05,250.07 75.96,241.99 75.96,241.99
             75.96,241.99 82.00,238.82 82.00,238.82
             82.00,238.82 91.00,240.00 91.00,240.00
             91.62,234.59 92.21,235.48 94.10,231.00
             96.13,226.18 95.94,220.25 105.00,225.00
             105.85,223.45 106.71,221.63 107.91,220.46
             113.67,214.00 118.01,223.25 124.99,220.46
             131.94,217.96 130.70,213.42 137.00,210.00
             135.77,203.39 137.57,204.78 140.04,200.63
             140.04,200.63 142.00,196.20 142.00,196.20
             143.45,193.85 145.54,193.05 146.31,190.79
             148.21,185.23 143.44,179.08 143.15,173.99
             142.51,162.91 149.96,162.02 156.86,156.77
             161.06,153.57 159.26,152.00 165.00,151.00
             165.00,147.91 164.75,142.97 165.86,140.17
             167.02,137.27 172.07,132.28 172.65,127.00
             173.00,122.26 168.98,113.49 172.65,109.74
             175.51,106.97 181.56,108.52 185.00,109.08
             194.33,110.61 202.69,107.71 204.00,120.00
             204.00,120.00 264.00,87.14 264.00,87.14
             266.76,85.61 272.79,82.39 274.96,80.61
             279.19,77.15 280.20,73.53 286.00,72.09
             286.00,72.09 292.00,71.16 292.00,71.16
             294.81,70.45 301.06,66.79 304.00,65.22
             306.24,64.02 311.96,60.19 313.98,60.01
             318.62,59.62 321.23,66.19 320.57,70.00
             319.62,75.41 315.26,76.99 311.00,79.31
             304.29,82.95 295.82,87.27 290.00,92.00
             297.45,89.87 318.17,78.52 326.00,74.31 Z
           M 266.00,105.00
           C 270.34,103.76 272.66,103.03 275.00,99.00
             275.00,99.00 266.00,105.00 266.00,105.00 Z
           M 257.00,109.00
           C 257.00,109.00 258.00,110.00 258.00,110.00
             258.00,110.00 258.00,109.00 258.00,109.00
             258.00,109.00 257.00,109.00 257.00,109.00 Z
           M 268.57,158.79
           C 266.57,160.98 267.09,163.56 265.26,165.40
             263.26,167.42 260.34,166.62 258.60,168.02
             256.44,169.76 257.00,175.39 257.00,178.00
             257.00,178.00 265.00,178.00 265.00,178.00
             265.00,178.00 266.00,170.00 266.00,170.00
             266.00,170.00 268.00,170.00 268.00,170.00
             268.00,170.00 267.00,177.00 267.00,177.00
             267.00,177.00 272.00,170.00 272.00,170.00
             272.00,170.00 271.00,178.00 271.00,178.00
             278.03,179.02 277.26,177.92 282.72,170.00
             288.03,162.28 291.91,158.42 288.00,149.00
             284.35,150.04 270.87,156.26 268.57,158.79 Z
           M 232.00,159.00
           C 232.00,159.00 240.00,155.00 240.00,155.00
             240.00,155.00 232.00,159.00 232.00,159.00 Z
           M 226.00,161.00
           C 226.00,161.00 227.00,162.00 227.00,162.00
             227.00,162.00 227.00,161.00 227.00,161.00
             227.00,161.00 226.00,161.00 226.00,161.00 Z
           M 220.00,165.00
           C 220.00,165.00 226.00,162.00 226.00,162.00
             226.00,162.00 220.00,165.00 220.00,165.00 Z
           M 230.00,177.00
           C 230.00,177.00 234.00,180.00 234.00,180.00
             234.00,180.00 240.00,172.00 240.00,172.00
             240.00,172.00 230.00,177.00 230.00,177.00 Z
           M 195.00,182.00
           C 195.00,182.00 195.00,177.00 195.00,177.00
             193.56,179.56 193.49,179.49 195.00,182.00 Z
           M 294.00,213.00
           C 296.79,210.49 295.94,208.33 295.00,205.00
             295.00,205.00 294.00,213.00 294.00,213.00 Z
           M 132.00,220.00
           C 132.00,220.00 133.00,221.00 133.00,221.00
             133.00,221.00 133.00,220.00 133.00,220.00
             133.00,220.00 132.00,220.00 132.00,220.00 Z
           M 97.00,230.00
           C 97.00,230.00 101.00,225.00 101.00,225.00
             101.00,225.00 97.00,230.00 97.00,230.00 Z" />
</svg>
