<?xml version="1.0" encoding="UTF-8" standalone="no"?>
<!DOCTYPE svg PUBLIC "-//W3C//DTD SVG 20010904//EN"
              "http://www.w3.org/TR/2001/REC-SVG-20010904/DTD/svg10.dtd">

<svg xmlns="http://www.w3.org/2000/svg"
     width="3.97917in" height="3.64583in"
     viewBox="0 0 382 350">
  <path id="Selection"
        fill="none" stroke="black" stroke-width="1"
        d="M 139.60,41.70
           C 138.39,39.05 139.98,33.95 140.46,31.00
             140.49,27.63 139.60,24.28 140.46,21.00
             143.26,13.35 151.36,9.57 159.00,10.10
             165.44,10.54 173.41,15.58 177.57,20.32
             181.18,24.44 179.12,28.71 186.00,27.94
             192.18,27.26 193.47,26.04 201.00,25.81
             201.00,25.81 237.00,25.81 237.00,25.81
             245.87,24.99 241.33,30.36 245.33,34.61
             247.81,37.25 252.12,38.02 254.79,39.99
             257.68,42.13 257.96,44.11 259.53,47.00
             263.85,54.98 271.70,57.16 269.83,61.70
             268.78,64.26 263.48,67.06 261.00,68.32
             247.65,73.84 230.75,62.90 220.23,68.32
             216.77,70.35 217.23,73.68 216.83,77.00
             216.83,77.00 214.00,90.00 214.00,90.00
             214.00,90.00 227.00,96.63 227.00,96.63
             234.44,100.26 237.68,97.85 238.00,107.00
             238.00,107.00 247.00,107.00 247.00,107.00
             245.25,114.33 242.44,117.15 237.00,122.00
             244.23,123.76 251.21,122.48 263.00,125.74
             263.00,125.74 285.17,133.01 285.17,133.01
             290.13,133.02 301.24,128.05 307.00,126.43
             316.22,123.84 325.62,123.61 335.00,122.27
             342.96,121.13 343.52,120.73 351.00,117.95
             353.30,117.09 357.54,115.18 359.91,115.50
             364.37,116.10 365.10,120.35 365.00,124.00
             365.00,124.00 371.00,126.00 371.00,126.00
             367.06,130.38 363.28,131.02 358.00,133.28
             349.56,136.88 344.31,138.96 335.00,139.00
             335.00,139.00 322.00,139.00 322.00,139.00
             314.97,138.97 308.06,137.21 301.00,138.30
             297.89,138.78 294.98,140.05 292.00,141.00
             298.34,153.99 303.82,158.02 304.00,174.00
             304.22,193.84 293.03,206.72 283.45,223.00
             283.45,223.00 274.74,241.00 274.74,241.00
             269.99,250.19 264.45,254.72 265.25,266.00
             265.28,269.24 266.48,272.87 265.25,276.00
             264.31,279.16 259.38,284.37 257.05,287.00
             257.05,287.00 242.44,304.00 242.44,304.00
             242.44,304.00 233.39,316.90 233.39,316.90
             230.62,320.29 227.84,321.08 226.17,324.10
             223.27,329.37 227.31,335.64 220.81,340.40
             218.17,342.34 202.97,342.99 199.00,343.00
             200.09,335.24 208.33,327.16 214.00,322.00
             214.00,322.00 194.00,321.00 194.00,321.00
             188.58,321.07 181.68,323.38 178.00,322.42
             171.39,320.68 168.84,313.73 164.79,309.00
             164.79,309.00 150.00,294.30 150.00,294.30
             146.81,291.56 142.48,289.15 140.98,285.07
             139.93,282.35 140.80,277.97 140.98,275.00
             133.73,276.47 129.75,281.78 124.04,278.82
             118.57,275.99 118.25,269.26 116.85,264.00
             116.85,264.00 106.13,234.00 106.13,234.00
             104.49,230.21 100.01,223.71 100.38,220.00
             100.88,215.05 105.26,211.49 110.00,211.06
             112.73,210.81 117.22,211.44 118.81,208.57
             120.19,206.07 117.43,195.46 117.18,192.00
             116.74,185.85 119.37,181.97 119.35,178.00
             119.35,178.00 116.00,164.00 116.00,164.00
             108.46,169.40 93.73,185.55 86.00,192.96
             86.00,192.96 40.00,234.16 40.00,234.16
             40.00,234.16 21.00,250.13 21.00,250.13
             16.25,254.18 13.29,257.67 7.00,259.00
             9.88,252.91 13.28,251.31 18.00,246.91
             18.00,246.91 36.42,230.26 36.42,230.26
             36.42,230.26 47.96,219.18 47.96,219.18
             47.96,219.18 69.00,200.00 69.00,200.00
             69.00,200.00 90.14,178.14 90.14,178.14
             94.14,174.14 110.45,158.35 112.31,155.00
             116.05,148.28 109.03,146.20 105.00,143.93
             102.85,142.72 100.95,141.15 99.00,139.65
             99.00,139.65 75.91,120.09 75.91,120.09
             73.28,118.71 70.81,118.49 68.04,117.69
             68.04,117.69 63.58,116.40 63.58,116.40
             61.79,116.32 57.24,118.36 55.00,119.00
             49.96,113.75 41.34,113.32 40.25,102.96
             39.45,95.33 51.81,85.50 56.58,80.00
             56.58,80.00 79.17,53.18 79.17,53.18
             84.47,48.03 89.16,47.94 91.31,42.96
             92.58,40.01 92.00,28.90 92.00,25.00
             96.85,26.81 99.96,32.11 101.00,37.00
             109.52,32.45 103.86,24.83 112.00,20.00
             113.99,27.55 115.01,27.62 114.95,36.00
             114.88,46.09 123.28,54.14 128.80,62.00
             139.05,76.62 137.46,76.71 144.86,90.00
             144.86,90.00 156.00,109.00 156.00,109.00
             162.25,105.62 159.07,102.73 160.41,97.00
             161.25,93.42 163.59,91.47 161.46,88.09
             159.36,84.74 150.56,79.82 147.22,76.54
             144.36,73.71 142.98,69.74 141.65,66.00
             140.45,62.39 139.43,59.51 141.65,56.00
             142.88,53.94 147.11,49.89 149.00,48.00
             146.86,46.71 140.50,43.66 139.60,41.70 Z
           M 78.47,112.42
           C 82.27,115.71 93.00,115.01 98.00,115.00
             100.13,115.00 104.55,115.38 105.89,113.40
             108.47,109.58 102.39,98.45 97.98,97.72
             95.56,97.32 88.62,99.82 86.00,100.67
             81.88,102.01 77.91,103.10 74.00,105.00
             75.07,107.29 76.56,110.76 78.47,112.42 Z
           M 70.00,108.00
           C 70.00,108.00 68.00,112.00 68.00,112.00
             68.00,112.00 72.00,113.00 72.00,113.00
             72.00,113.00 73.00,112.00 73.00,112.00
             73.00,112.00 72.00,108.00 72.00,108.00
             72.00,108.00 70.00,108.00 70.00,108.00 Z
           M 87.00,121.00
           C 90.54,129.23 102.36,138.53 111.00,141.00
             111.00,141.00 108.00,120.00 108.00,120.00
             108.00,120.00 87.00,121.00 87.00,121.00 Z
           M 362.00,124.00
           C 362.00,124.00 363.00,125.00 363.00,125.00
             363.00,125.00 363.00,124.00 363.00,124.00
             363.00,124.00 362.00,124.00 362.00,124.00 Z
           M 123.31,234.02
           C 117.72,237.76 125.06,251.49 127.00,256.00
             127.00,256.00 136.03,252.41 136.03,252.41
             136.03,252.41 136.03,247.00 136.03,247.00
             136.03,247.00 135.00,233.00 135.00,233.00
             132.22,233.00 125.47,232.59 123.31,234.02 Z
           M 202.00,236.68
           C 202.00,236.68 194.00,237.63 194.00,237.63
             187.24,239.55 185.17,242.89 172.00,242.79
             170.48,242.78 168.90,242.59 167.51,243.40
             164.93,244.91 162.02,255.06 162.24,258.00
             162.59,262.77 165.76,262.71 168.00,269.00
             165.35,269.62 160.52,270.86 158.60,272.81
             155.00,276.48 157.51,284.48 160.06,288.00
             162.79,291.78 170.12,299.81 174.00,302.07
             174.00,302.07 180.91,304.76 180.91,304.76
             180.91,304.76 185.28,306.90 185.28,306.90
             191.31,308.97 192.82,302.36 200.99,306.90
             207.67,310.60 208.91,316.55 215.00,320.00
             215.00,320.00 211.29,295.00 211.29,295.00
             210.95,286.20 207.02,284.49 208.71,279.00
             212.48,266.81 233.68,259.49 231.62,245.96
             231.62,245.96 230.89,243.02 230.89,243.02
             227.41,233.26 220.49,242.30 216.40,240.59
             214.64,239.86 214.42,235.78 214.00,234.00
             214.00,234.00 202.00,236.68 202.00,236.68 Z
           M 230.13,272.17
           C 230.13,272.17 226.51,277.79 226.51,277.79
             224.28,280.41 220.63,281.86 220.63,285.04
             220.62,288.78 225.31,290.73 226.81,295.04
             228.33,299.37 225.21,303.76 224.00,308.00
             230.75,305.84 239.78,295.87 241.57,289.00
             241.57,289.00 242.46,279.00 242.46,279.00
             244.28,268.91 245.00,273.59 245.00,261.00
             240.52,263.30 233.08,268.14 230.13,272.17 Z" />
</svg>
