<?xml version="1.0" encoding="UTF-8" standalone="no"?>
<!DOCTYPE svg PUBLIC "-//W3C//DTD SVG 20010904//EN"
              "http://www.w3.org/TR/2001/REC-SVG-20010904/DTD/svg10.dtd">

<svg xmlns="http://www.w3.org/2000/svg"
     width="5.02385in" height="4.35235in"
     viewBox="0 0 404 350">
  <path id="Selection"
        fill="none" stroke="black" stroke-width="1"
        d="M 31.00,151.00
           C 31.00,151.00 36.86,127.00 36.86,127.00
             36.86,127.00 41.62,113.00 41.62,113.00
             42.67,107.42 40.06,103.66 40.08,98.00
             40.10,91.31 45.16,82.05 49.33,77.00
             53.97,71.38 65.16,61.56 72.00,58.99
             78.54,56.53 85.98,59.95 88.93,55.69
             91.35,51.90 89.21,42.47 88.93,38.00
             88.84,32.85 89.73,28.89 91.20,24.00
             95.04,11.21 100.49,6.72 113.00,2.51
             118.45,0.67 120.16,0.07 126.00,0.00
             132.29,-0.07 140.28,-0.69 146.00,1.90
             154.69,5.85 159.36,17.72 163.30,26.00
             164.69,28.93 167.53,33.91 167.73,37.00
             168.14,43.07 162.97,42.45 161.03,45.43
             157.83,50.33 164.58,62.60 169.09,64.97
             177.76,69.52 183.07,54.45 187.48,50.31
             190.48,47.49 194.16,47.96 198.00,48.00
             198.00,48.00 229.00,51.57 229.00,51.57
             236.01,52.75 240.32,52.65 241.00,61.00
             241.00,61.00 325.00,61.00 325.00,61.00
             329.73,60.99 332.05,61.38 335.71,57.85
             338.42,55.25 342.74,48.38 346.88,48.59
             351.68,48.84 351.92,60.46 352.00,64.00
             352.00,64.00 374.00,64.00 374.00,64.00
             374.00,64.00 393.00,62.82 393.00,62.82
             393.00,62.82 404.00,61.00 404.00,61.00
             404.00,61.00 404.00,73.00 404.00,73.00
             388.98,73.00 357.24,72.03 344.00,74.14
             338.81,74.97 338.33,77.92 334.83,79.83
             332.42,81.14 329.66,80.97 327.00,81.00
             327.00,81.00 327.00,84.00 327.00,84.00
             321.03,84.00 307.39,84.08 302.00,85.42
             294.27,87.34 277.82,100.43 273.34,107.01
             273.34,107.01 267.75,120.00 267.75,120.00
             267.75,120.00 255.39,143.00 255.39,143.00
             253.04,148.04 251.38,153.67 247.66,157.91
             241.09,165.41 229.67,169.69 220.00,171.00
             220.00,193.26 217.06,229.71 211.42,251.00
             209.94,256.57 207.98,261.99 205.13,267.00
             201.11,274.06 196.53,279.30 197.77,288.00
             199.10,297.35 206.68,305.44 214.04,310.96
             218.02,313.95 224.56,316.02 226.22,321.01
             228.71,328.47 217.72,329.15 213.00,328.96
             198.51,328.39 188.89,322.92 176.00,318.67
             172.16,317.40 164.07,316.15 162.02,312.78
             157.92,306.02 165.43,287.71 167.12,280.00
             169.86,267.43 165.48,268.06 165.04,259.00
             164.59,249.62 167.28,239.16 169.00,230.00
             159.65,239.33 142.30,254.66 131.00,261.13
             131.00,261.13 114.00,269.78 114.00,269.78
             110.80,271.13 105.90,272.57 103.72,275.27
             101.08,278.56 98.60,290.50 97.74,295.00
             94.47,312.16 94.38,318.27 84.95,334.00
             78.74,344.35 75.30,349.84 62.00,350.00
             57.76,350.05 48.68,350.37 45.00,349.15
             42.25,348.23 39.36,346.26 37.00,344.57
             26.55,337.06 24.78,328.03 22.75,316.00
             22.03,311.69 21.11,307.37 21.01,303.00
             20.74,290.98 27.82,280.66 27.61,274.00
             27.38,266.93 20.52,264.04 20.24,259.99
             20.01,256.53 24.88,251.78 24.14,248.04
             23.25,243.57 15.49,241.52 12.02,239.19
             7.94,236.45 5.08,231.34 2.90,227.00
             -1.07,219.11 0.15,210.49 0.15,202.00
             0.15,196.96 -0.56,192.96 1.10,188.00
             3.52,180.78 6.74,178.45 8.02,175.83
             9.55,172.72 8.04,161.72 18.00,163.36
             25.05,164.52 22.41,169.64 30.00,169.00
             28.05,162.15 29.67,157.73 31.00,151.00 Z
           M 339.00,62.00
           C 339.00,62.00 346.00,62.00 346.00,62.00
             346.00,62.00 345.00,55.00 345.00,55.00
             345.00,55.00 339.00,62.00 339.00,62.00 Z
           M 201.00,57.00
           C 201.00,57.00 201.00,61.00 201.00,61.00
             201.00,61.00 235.00,60.00 235.00,60.00
             235.00,60.00 235.00,57.00 235.00,57.00
             235.00,57.00 201.00,57.00 201.00,57.00 Z
           M 245.00,92.00
           C 245.00,92.00 237.02,96.41 237.02,96.41
             237.02,96.41 233.44,111.44 233.44,111.44
             233.44,111.44 215.00,117.00 215.00,117.00
             215.00,117.00 214.00,101.00 214.00,101.00
             211.33,101.00 203.66,100.49 201.72,101.99
             200.33,103.08 199.80,105.40 199.26,107.00
             196.94,113.87 195.88,115.97 202.04,121.19
             203.70,122.59 205.99,124.34 208.00,125.15
             213.11,127.19 221.10,124.73 226.00,122.74
             235.46,118.91 243.38,110.41 250.68,103.52
             256.09,98.40 262.24,93.06 265.00,86.00
             265.00,86.00 245.00,92.00 245.00,92.00 Z
           M 208.00,92.00
           C 208.00,92.00 208.00,97.00 208.00,97.00
             212.30,95.49 212.30,93.51 208.00,92.00 Z
           M 163.00,150.00
           C 163.00,150.00 162.00,167.00 162.00,167.00
             162.00,167.00 176.00,160.00 176.00,160.00
             176.00,160.00 176.00,158.00 176.00,158.00
             176.00,158.00 163.00,150.00 163.00,150.00 Z" />
</svg>
