<?xml version="1.0" encoding="UTF-8" standalone="no"?>
<!DOCTYPE svg PUBLIC "-//W3C//DTD SVG 20010904//EN"
              "http://www.w3.org/TR/2001/REC-SVG-20010904/DTD/svg10.dtd">

<svg xmlns="http://www.w3.org/2000/svg"
     width="17.0395in" height="8.72113in"
     viewBox="0 0 1227 628">
  <path id="connections"
        fill="none" stroke="black" stroke-width="1"
        d="M 325.00,38.12
           C 325.00,38.12 377.00,27.00 377.00,27.00
             373.68,31.30 364.21,31.68 359.00,32.88
             359.00,32.88 307.00,44.00 307.00,44.00
             310.32,39.70 319.79,39.32 325.00,38.12 Z
           M 354.00,53.80
           C 354.00,53.80 377.00,39.58 377.00,39.58
             380.48,37.41 383.76,34.44 388.00,35.00
             388.00,35.00 297.00,91.20 297.00,91.20
             297.00,91.20 274.00,105.42 274.00,105.42
             270.52,107.59 267.24,110.56 263.00,110.00
             263.00,110.00 354.00,53.80 354.00,53.80 Z
           M 394.09,61.00
           C 394.09,61.00 370.28,87.00 370.28,87.00
             366.02,91.83 356.74,102.53 352.00,106.00
             354.99,99.56 369.36,84.88 374.96,79.00
             374.96,79.00 407.00,44.00 407.00,44.00
             406.94,49.08 397.62,57.20 394.09,61.00 Z
           M 497.00,73.00
           C 491.60,70.45 487.44,65.81 484.00,61.00
             489.40,63.55 493.56,68.19 497.00,73.00 Z
           M 565.00,84.29
           C 569.62,85.60 577.01,86.14 580.00,90.00
             580.00,90.00 537.00,79.00 537.00,79.00
             532.32,77.66 524.83,77.11 522.00,73.00
             522.00,73.00 565.00,84.29 565.00,84.29 Z
           M 526.00,91.00
           C 526.00,91.00 543.00,109.00 543.00,109.00
             543.00,109.00 530.00,98.00 530.00,98.00
             530.00,98.00 513.00,80.00 513.00,80.00
             513.00,80.00 526.00,91.00 526.00,91.00 Z
           M 19.00,97.00
           C 19.00,97.00 19.00,99.00 19.00,99.00
             19.00,99.00 0.00,99.00 0.00,99.00
             0.00,99.00 0.00,97.00 0.00,97.00
             0.00,97.00 19.00,97.00 19.00,97.00 Z
           M 582.00,99.00
           C 582.00,99.00 563.00,119.00 563.00,119.00
             563.00,119.00 579.00,122.00 579.00,122.00
             579.00,122.00 582.00,102.00 582.00,102.00
             582.00,102.00 584.00,102.00 584.00,102.00
             584.00,102.00 581.87,117.00 581.87,117.00
             581.87,117.00 579.44,122.89 579.44,122.89
             579.44,122.89 561.00,121.00 561.00,121.00
             562.88,114.59 575.93,101.87 582.00,99.00 Z
           M 1227.00,116.00
           C 1227.00,116.00 1227.00,118.00 1227.00,118.00
             1227.00,118.00 1126.00,118.00 1126.00,118.00
             1126.00,118.00 1126.00,116.00 1126.00,116.00
             1126.00,116.00 1227.00,116.00 1227.00,116.00 Z
           M 560.00,135.00
           C 560.00,135.00 560.00,140.00 560.00,140.00
             560.00,140.00 558.00,140.00 558.00,140.00
             558.00,140.00 558.00,135.00 558.00,135.00
             558.00,135.00 560.00,135.00 560.00,135.00 Z
           M 1095.00,186.00
           C 1095.00,186.00 1050.00,186.00 1050.00,186.00
             1050.00,186.00 1050.00,184.00 1050.00,184.00
             1050.00,184.00 1092.00,184.00 1092.00,184.00
             1086.20,178.20 1073.18,166.72 1070.00,160.00
             1076.01,164.30 1092.02,179.69 1095.00,186.00 Z
           M 610.00,175.00
           C 608.75,181.17 601.08,194.04 595.00,196.00
             596.25,189.83 603.92,176.96 610.00,175.00 Z
           M 543.00,198.00
           C 543.00,198.00 543.00,204.00 543.00,204.00
             543.00,204.00 541.00,204.00 541.00,204.00
             541.00,204.00 541.00,198.00 541.00,198.00
             541.00,198.00 543.00,198.00 543.00,198.00 Z
           M 644.00,198.00
           C 644.00,198.00 644.00,214.00 644.00,214.00
             644.00,214.00 642.00,214.00 642.00,214.00
             642.00,214.00 642.00,198.00 642.00,198.00
             642.00,198.00 644.00,198.00 644.00,198.00 Z
           M 726.00,282.00
           C 726.00,282.00 718.00,290.00 718.00,290.00
             719.94,285.91 721.91,283.94 726.00,282.00 Z
           M 485.00,318.37
           C 485.00,318.37 471.00,328.71 471.00,328.71
             471.00,328.71 418.00,367.71 418.00,367.71
             413.48,370.95 403.17,380.54 398.00,380.00
             398.00,380.00 490.00,312.00 490.00,312.00
             489.95,315.28 487.47,316.48 485.00,318.37 Z
           M 1009.42,329.00
           C 1014.75,335.20 1020.60,341.07 1025.00,348.00
             1020.04,345.54 1017.14,341.15 1013.58,337.00
             1008.25,330.80 1002.40,324.93 998.00,318.00
             1002.96,320.46 1005.86,324.85 1009.42,329.00 Z
           M 733.69,395.00
           C 733.69,395.00 754.00,427.00 754.00,427.00
             748.46,423.90 745.65,417.19 742.31,412.00
             742.31,412.00 722.00,380.00 722.00,380.00
             727.54,383.10 730.35,389.81 733.69,395.00 Z
           M 1116.00,383.00
           C 1116.00,383.00 1116.00,418.00 1116.00,418.00
             1116.00,418.00 1114.00,418.00 1114.00,418.00
             1114.00,418.00 1113.00,387.00 1113.00,387.00
             1109.41,393.69 1097.80,405.66 1092.28,412.00
             1088.10,416.80 1083.75,423.22 1078.00,426.00
             1078.00,426.00 1113.00,385.00 1113.00,385.00
             1113.00,385.00 1066.00,385.00 1066.00,385.00
             1066.00,385.00 1066.00,383.00 1066.00,383.00
             1066.00,383.00 1116.00,383.00 1116.00,383.00 Z
           M 1069.00,411.00
           C 1069.00,411.00 1069.00,433.00 1069.00,433.00
             1069.00,433.00 1067.00,433.00 1067.00,433.00
             1067.00,433.00 1067.00,411.00 1067.00,411.00
             1067.00,411.00 1069.00,411.00 1069.00,411.00 Z
           M 736.00,454.00
           C 736.00,454.00 736.00,456.00 736.00,456.00
             736.00,456.00 700.00,456.00 700.00,456.00
             700.00,456.00 700.00,454.00 700.00,454.00
             700.00,454.00 736.00,454.00 736.00,454.00 Z" />
</svg>
